<svg width="35" height="16" viewBox="0 0 35 16" fill="none" xmlns="http://www.w3.org/2000/svg">
<path fill-rule="evenodd" clip-rule="evenodd" d="M0 8C0 7.76429 0.0936374 7.53823 0.260313 7.37155C0.426989 7.20487 0.653049 7.11124 0.888764 7.11124H31.8512L26.2573 1.51913C26.0904 1.35225 25.9966 1.1259 25.9966 0.889887C25.9966 0.653874 26.0904 0.427528 26.2573 0.260642C26.4242 0.0937554 26.6505 5.56065e-09 26.8865 0C27.1225 -5.56065e-09 27.3489 0.0937555 27.5158 0.260642L34.6259 7.37075C34.7086 7.45331 34.7743 7.55139 34.8191 7.65937C34.8639 7.76734 34.887 7.8831 34.887 8C34.887 8.1169 34.8639 8.23266 34.8191 8.34063C34.7743 8.44861 34.7086 8.54669 34.6259 8.62924L27.5158 15.7394C27.3489 15.9062 27.1225 16 26.8865 16C26.6505 16 26.4242 15.9062 26.2573 15.7394C26.0904 15.5725 25.9966 15.3461 25.9966 15.1101C25.9966 14.8741 26.0904 14.6478 26.2573 14.4809L31.8512 8.88876H0.888764C0.653049 8.88876 0.426989 8.79513 0.260313 8.62845C0.0936374 8.46178 0 8.23571 0 8Z" fill="white"/>
</svg>
