<svg width="179" height="106" viewBox="0 0 179 106" fill="none" xmlns="http://www.w3.org/2000/svg">
<path fill-rule="evenodd" clip-rule="evenodd" d="M170.561 45.1967L24.245 3.66619C21.3205 2.8361 18.2768 4.53395 17.4467 7.45844L4.39429 53.4436C3.5642 56.3681 5.26205 59.4117 8.18654 60.2418L154.503 101.772C157.427 102.602 160.471 100.905 161.301 97.9801L174.354 51.995C175.184 49.0705 173.486 46.0268 170.561 45.1967ZM24.7196 1.994C20.8716 0.901779 16.8668 3.13579 15.7746 6.9838L2.72211 52.9689C1.62989 56.8169 3.86389 60.8218 7.71191 61.914L154.028 103.445C157.876 104.537 161.881 102.303 162.973 98.4547L176.026 52.4696C177.118 48.6216 174.884 44.6167 171.036 43.5245L24.7196 1.994Z" fill="#333333"/>
<path d="M134.75 74.0891C137.452 74.856 140 73.4231 140.771 70.7074C141.551 67.957 140.212 65.3983 137.607 64.6589C136.651 64.3876 135.626 64.4635 134.912 64.7625L134.829 64.7389L136.516 60.6961L142.446 62.3793L142.878 60.8552L135.507 58.7629L132.666 65.5024L134.218 66.1526C134.927 65.8971 136.018 65.8774 136.889 66.1321C138.693 66.6592 139.627 68.4065 139.1 70.2632C138.583 72.0852 136.929 73.0605 135.183 72.5649C133.728 72.152 132.837 70.8883 133.069 69.5693L131.406 69.0974C130.897 71.2884 132.312 73.3969 134.75 74.0891Z" fill="#333333"/>
<path d="M146.73 77.4895C149.564 78.2937 152.008 77.1984 152.677 74.8953C153.172 73.0971 152.406 71.2328 150.956 70.5142L150.98 70.431C152.408 70.4622 153.651 69.4075 154.093 67.9012C154.693 65.7358 153.334 63.6133 150.868 62.9133C148.374 62.2053 146.102 63.2974 145.503 65.4628C145.06 66.9692 145.563 68.5194 146.823 69.2512L146.799 69.3343C145.16 69.1759 143.529 70.3599 143.033 72.1581C142.365 74.4612 143.869 76.6773 146.73 77.4895ZM147.163 75.9653C145.216 75.4128 144.301 74.075 144.747 72.5548C145.188 70.9505 146.835 70.183 148.657 70.7002C150.452 71.2095 151.451 72.7281 151.01 74.3324C150.564 75.8526 149.082 76.51 147.163 75.9653ZM149.074 69.2315C147.522 68.791 146.703 67.5104 147.134 66.0456C147.529 64.6007 148.85 63.9574 150.443 64.4097C152.009 64.8541 152.794 66.0952 152.399 67.5401C151.968 69.0049 150.598 69.6641 149.074 69.2315Z" fill="#333333"/>
<path d="M59.2033 52.4363L67.5167 54.796L67.9493 53.2719L61.354 51.3999L64.9486 38.7357L63.2305 38.2481L59.2033 52.4363Z" fill="#333333"/>
<path d="M69.9553 55.4882L71.5903 55.9523L74.6107 45.3111L72.9757 44.847L69.9553 55.4882ZM74.3105 43.3094C74.9478 43.4903 75.6159 43.141 75.789 42.5313C75.962 41.9217 75.5771 41.2734 74.9397 41.0925C74.3023 40.9116 73.6342 41.261 73.4612 41.8706C73.2882 42.4803 73.6731 43.1285 74.3105 43.3094Z" fill="#333333"/>
<path d="M74.5848 56.8022L76.2198 57.2663L77.3505 53.2828L78.7945 52.5473L81.3464 58.7214L83.4248 59.3114L80.3265 51.8443L86.1127 48.5758L84.0897 48.0016L78.0892 51.4188L77.8952 51.3638L80.247 43.0781L78.612 42.614L74.5848 56.8022Z" fill="#333333"/>
<path d="M89.157 61.178C91.3185 61.7915 93.2048 61.1591 94.1598 59.6934L92.7061 58.8017C91.9758 59.7921 90.8556 60.073 89.5739 59.7093C87.6549 59.1646 86.6837 57.5489 87.2544 55.248L94.979 57.4405L95.1756 56.7478C96.3004 52.785 94.3303 50.7586 92.1134 50.1293C89.2314 49.3113 86.6743 51.0409 85.7462 54.3109C84.8181 57.5808 86.0811 60.3049 89.157 61.178ZM87.6555 53.8347C88.2364 52.2104 89.826 51.0671 91.6965 51.598C93.4701 52.1014 94.2287 53.7541 93.7174 55.5553L87.6555 53.8347Z" fill="#333333"/>
<path d="M40.802 32.3139C40.103 31.0539 38.9323 30.1231 37.5472 29.726C36.162 29.3289 34.6759 29.4982 33.4156 30.1965C32.1592 30.9021 31.2345 32.0777 30.8447 33.4648C30.4548 34.852 30.6318 36.3372 31.3367 37.5939L36.7591 47.3169C36.8671 47.5105 37.0477 47.6533 37.2609 47.7138C37.4742 47.7743 37.7028 47.7477 37.8965 47.6397L47.5669 42.2494C48.8227 41.5437 49.7471 40.3684 50.1368 38.9816C50.5265 37.5948 50.3497 36.1101 49.6453 34.8536C49.2991 34.2285 48.8331 33.6778 48.2739 33.2329C47.7148 32.788 47.0735 32.4577 46.3866 32.2608C45.6997 32.0639 44.9808 32.0043 44.2708 32.0854C43.5609 32.1665 42.8739 32.3867 42.2492 32.7334L41.3255 33.25L40.802 32.3139Z" fill="#333333"/>
<path fill-rule="evenodd" clip-rule="evenodd" d="M108.439 88.9977L125.051 30.4712L126.723 30.9458L110.111 89.4723L108.439 88.9977Z" fill="#333333"/>
</svg>
