<svg width="872" height="175" fill="none" xmlns="http://www.w3.org/2000/svg"><path fill-rule="evenodd" clip-rule="evenodd" d="M103.727 92.235l21.784 14.018-1.292 1.709c-10.292 13.612-26.66 20.806-45.91 20.806-15.853 0-29.718-4.512-39.659-12.793-9.975-8.308-15.867-20.31-15.867-34.949 0-14.56 5.894-26.56 15.865-34.888 9.939-8.299 23.804-12.853 39.661-12.853 19.262 0 35.618 7.36 45.903 20.797l1.302 1.7-21.781 14.205-1.065-1.75c-3.926-6.45-11.801-10.01-24.359-10.01-9.968 0-16.911 1.59-21.357 5.061-4.327 3.379-6.684 8.87-6.684 17.738 0 8.954 2.36 14.484 6.687 17.88 4.445 3.489 11.386 5.078 21.354 5.078 12.558 0 20.433-3.559 24.359-10.01l1.059-1.739zm-.027-26.05c-4.626-6.629-13.135-9.943-25.39-9.943-20.178 0-30.028 6.355-30.028 24.784 0 18.589 9.85 24.944 30.027 24.944 12.376 0 20.932-3.38 25.526-10.14.183-.268.359-.543.53-.823l18.27 11.757a47.235 47.235 0 01-1.236 1.566c-9.904 12.021-25.108 18.452-43.09 18.452-30.98 0-53.54-17.635-53.54-45.756 0-27.961 22.56-45.755 53.54-45.755 17.976 0 33.177 6.573 43.081 18.459.425.51.84 1.03 1.245 1.559l-18.27 11.915a19.819 19.819 0 00-.665-1.02zm53.132 61.153h-25.896V21.846h25.896v105.492zm-1.985-103.506v101.52h-21.925V23.832h21.925zm18.966 37.47c6.657-8.157 17.246-14.036 32.817-14.036 15.571 0 26.197 5.878 32.893 14.03 6.64 8.086 9.289 18.249 9.289 26.72 0 8.473-2.649 18.636-9.289 26.721-6.696 8.153-17.322 14.031-32.893 14.031-15.571 0-26.16-5.879-32.817-14.036-6.599-8.087-9.205-18.25-9.205-26.715 0-8.466 2.606-18.628 9.205-26.715zm19.173 38.683c2.557 3.654 6.763 6.541 13.644 6.541 6.967 0 11.168-2.892 13.701-6.536 2.606-3.748 3.537-8.441 3.537-11.973s-.931-8.225-3.537-11.974c-2.533-3.644-6.734-6.535-13.701-6.535-6.881 0-11.087 2.886-13.644 6.54-2.629 3.755-3.593 8.45-3.593 11.969s.964 8.214 3.593 11.968zm141.242 25.367h-22.083v-32.41c0-15.41-1.589-23.672-9.85-23.672-8.421 0-16.841 6.514-21.766 13.345v42.737h-21.925v-74.67h21.925v9.373c.64-.566 1.303-1.12 1.986-1.661 6.603-5.228 15.098-9.142 23.593-9.142 17.794 0 28.12 11.28 28.12 43.69v32.41zm-51.713-69.46v-7.197h-25.897v78.643h25.897V83.267c2.293-3.058 5.311-6.013 8.678-8.227 3.562-2.344 7.396-3.784 11.102-3.784 1.718 0 2.912.421 3.808 1.115.919.712 1.712 1.857 2.345 3.626 1.298 3.624 1.711 9.212 1.711 16.945v34.396h26.055V92.942c0-16.339-2.588-27.762-7.746-35.137-5.269-7.534-12.994-10.54-22.36-10.54-8.53 0-16.926 3.676-23.593 8.627zm142.368 52.471l-1.137 1.72-1.657-1.095-15.411-9.373c0 .004-.007.016-.021.035-.495.657-9.513 9.815-20.632 9.815-11.358 0-17.377-8.274-19.526-15.65a24.537 24.537 0 01-.492-1.985h58.783c0-.636.04-1.271.079-1.907.04-.635.08-1.27.08-1.906 0-16.205-10.168-38.765-40.195-38.765-30.028 0-40.037 22.56-40.037 38.765 0 16.205 10.009 38.765 40.037 38.765 20.867 0 32.535-11.842 36.126-16.205.81-.985 1.209-1.589 1.209-1.589 1.657 1.095 1.656 1.096 1.656 1.097l-.002.002-.003.006-.011.016-.035.051a21.875 21.875 0 01-.581.798 34.698 34.698 0 01-1.785 2.139 45.858 45.858 0 01-7.149 6.396c-6.411 4.647-16.144 9.275-29.425 9.275-15.572 0-26.161-5.879-32.817-14.036-6.6-8.087-9.206-18.25-9.206-26.715 0-8.466 2.606-18.628 9.206-26.715 6.656-8.157 17.245-14.036 32.817-14.036 15.571 0 26.197 5.878 32.892 14.03 6.64 8.086 9.289 18.249 9.289 26.72 0 .698-.043 1.385-.082 2.003l-.001.028c-.041.646-.076 1.22-.076 1.783v1.986h-58.204c2.119 6.702 7.586 13.663 17.453 13.663 5.177 0 9.957-2.204 13.529-4.542a35.82 35.82 0 004.183-3.198c.399-.356.72-.661.955-.895v-2.762l20.191 12.281zm-23.574-34.565c.768 1.168 1.08 1.986 1.08 1.986h-33.682s.195-.818.792-1.986c1.492-2.919 5.497-8.024 15.255-8.024 9.871 0 14.637 5.105 16.555 8.024zm-2.454 0c-.402-.5-.884-1.033-1.456-1.567-2.338-2.182-6.27-4.47-12.645-4.47-6.279 0-9.76 2.271-11.686 4.363a11.757 11.757 0 00-1.284 1.674h27.071zm113.022 18.437l21.784 14.018-1.292 1.709c-10.293 13.612-26.661 20.806-45.91 20.806-15.853 0-29.719-4.512-39.659-12.793-9.975-8.308-15.868-20.31-15.868-34.949 0-14.56 5.895-26.56 15.866-34.888 9.939-8.299 23.804-12.853 39.661-12.853 19.262 0 35.618 7.36 45.903 20.797l1.301 1.7-21.78 14.205-1.065-1.75c-3.926-6.45-11.802-10.01-24.359-10.01-9.968 0-16.912 1.59-21.358 5.061-4.326 3.379-6.683 8.87-6.683 17.738 0 8.954 2.36 14.484 6.687 17.88 4.445 3.489 11.385 5.078 21.354 5.078 12.557 0 20.433-3.559 24.359-10.01l1.059-1.739zm-.028-26.05c-4.625-6.629-13.134-9.943-25.39-9.943-20.177 0-30.027 6.355-30.027 24.784 0 18.589 9.85 24.944 30.027 24.944 12.376 0 20.932-3.38 25.526-10.14.182-.269.359-.543.529-.822l18.271 11.756a50.03 50.03 0 01-1.236 1.566c-9.904 12.021-25.109 18.452-43.09 18.452-30.981 0-53.541-17.635-53.541-45.756 0-27.961 22.56-45.755 53.541-45.755 17.976 0 33.177 6.573 43.081 18.459.424.51.84 1.03 1.245 1.559l-18.271 11.915a19.17 19.17 0 00-.665-1.02zm33.105-4.883c6.657-8.157 17.246-14.036 32.817-14.036 15.571 0 26.197 5.878 32.893 14.03 6.64 8.086 9.289 18.249 9.289 26.72 0 8.473-2.649 18.636-9.289 26.721-6.696 8.153-17.322 14.031-32.893 14.031-15.571 0-26.16-5.879-32.817-14.036-6.599-8.087-9.205-18.25-9.205-26.715 0-8.466 2.606-18.628 9.205-26.715zm19.173 38.683c2.557 3.654 6.763 6.541 13.644 6.541 6.967 0 11.168-2.892 13.701-6.536 2.606-3.748 3.537-8.441 3.537-11.973s-.931-8.225-3.537-11.974c-2.533-3.644-6.734-6.535-13.701-6.535-6.881 0-11.087 2.886-13.644 6.54-2.629 3.755-3.593 8.45-3.593 11.969s.964 8.214 3.593 11.968zm200.185 25.367h-22.084v-32.41c0-15.41-1.589-23.672-10.009-23.672-9.532 0-19.383 5.084-24.784 13.027.317 3.337.476 6.832.476 10.645v32.41h-21.924v-32.41c0-15.41-4.29-23.672-12.551-23.672-8.421 0-16.682 6.514-21.766 13.345v42.737h-21.925v-74.67h21.925v9.373c.64-.566 1.303-1.12 1.986-1.661 6.603-5.228 15.098-9.142 23.593-9.142 10.479 0 20.292 4.666 24.429 11.313.379.608.711 1.233.99 1.873.451-.522.941-1.039 1.467-1.55 6.523-6.33 18.677-11.636 32.056-11.636 17.794 0 28.121 11.28 28.121 43.69v32.41zm-61.2-66.232c7.026-6.59 19.511-11.854 33.079-11.854 9.366 0 17.091 3.005 22.36 10.539 5.159 7.375 7.747 18.798 7.747 35.137v34.396h-26.056V92.942c0-7.734-.413-13.318-1.727-16.937-.641-1.765-1.445-2.91-2.383-3.624-.918-.699-2.147-1.125-3.913-1.125-8.658 0-17.637 4.525-22.74 11.585.279 3.184.418 6.508.418 10.1v34.397h-25.896V92.942c0-7.58-1.065-13.117-2.948-16.689-1.811-3.433-4.323-4.997-7.617-4.997-3.703 0-7.495 1.437-11.039 3.781-3.347 2.214-6.371 5.171-8.741 8.245v44.056h-25.897V48.696h25.897v7.196c6.667-4.951 15.063-8.626 23.593-8.626 6.029 0 11.865 1.462 16.664 3.957 3.82 1.986 7.075 4.677 9.199 7.897zm96.965 98.007h-21.925V50.681h21.925v7.626c.64-.506 1.303-.997 1.985-1.471 6.603-4.583 15.098-7.584 23.593-7.584 19.701 0 28.121 19.382 28.121 38.765 0 19.382-13.822 38.765-33.363 38.765-7.119 0-13.38-3.556-18.351-7.976a46.046 46.046 0 01-1.985-1.874v40.195zm1.985-35.708v37.694h-25.896V48.696h25.896v5.749c6.733-4.365 15.141-7.18 23.593-7.18 10.628 0 18.252 5.282 23.13 13.044 4.825 7.679 6.977 17.772 6.977 27.708 0 20.072-14.344 40.751-35.349 40.751-7.14 0-13.372-3.259-18.351-7.349zm6.269-20.131c2.696 2.546 5.522 4.126 8.269 4.126 3.213 0 5.562-.824 7.313-2.031 1.767-1.217 3.045-2.907 3.966-4.812 1.869-3.863 2.145-8.347 2.145-10.554 0-2.884-.24-7.507-1.525-11.345-1.299-3.877-3.358-6.21-6.657-6.21-7.555 0-15.029 3.758-19.78 9.806V93.34c1.595 2.593 3.761 5.582 6.269 7.949zm-8.254-7.393c3.336 5.56 9.532 13.504 16.523 13.504 14.298 0 15.41-14.775 15.41-19.382 0-5.879-.953-19.542-10.168-19.542-8.42 0-16.681 4.29-21.765 11.122v14.298zm-633.483-5.878c0-16.205 10.009-38.765 40.036-38.765 30.028 0 40.196 22.56 40.196 38.765 0 16.205-10.168 38.765-40.196 38.765-30.027 0-40.036-22.56-40.036-38.765zm20.813 0c0 7.626 4.13 20.495 19.223 20.495 15.252 0 19.224-12.87 19.224-20.495 0-7.626-3.972-20.495-19.224-20.495-15.093 0-19.223 12.869-19.223 20.495zm350.328 0c0-16.205 10.009-38.765 40.036-38.765 30.028 0 40.196 22.56 40.196 38.765 0 16.205-10.168 38.765-40.196 38.765-30.027 0-40.036-22.56-40.036-38.765zm20.813 0c0 7.626 4.13 20.495 19.223 20.495 15.252 0 19.224-12.87 19.224-20.495 0-7.626-3.972-20.495-19.224-20.495-15.093 0-19.223 12.869-19.223 20.495z" fill="#fff" fill-opacity=".25"/></svg>