<svg width="872" height="175" fill="none" xmlns="http://www.w3.org/2000/svg"><path fill-rule="evenodd" clip-rule="evenodd" d="M91.811 80.32l21.785 14.017-1.292 1.709c-10.293 13.612-26.66 20.806-45.91 20.806-15.853 0-29.719-4.512-39.66-12.793-9.974-8.308-15.867-20.31-15.867-34.949 0-14.56 5.895-26.56 15.866-34.888 9.938-8.299 23.804-12.853 39.66-12.853 19.263 0 35.619 7.36 45.904 20.797l1.301 1.7-21.78 14.205-1.065-1.75c-3.927-6.45-11.802-10.01-24.36-10.01-9.968 0-16.91 1.59-21.357 5.061-4.326 3.379-6.684 8.87-6.684 17.738 0 8.954 2.361 14.484 6.688 17.88 4.445 3.489 11.385 5.078 21.354 5.078 12.557 0 20.432-3.559 24.359-10.01l1.058-1.739zm-.027-26.051c-4.625-6.629-13.135-9.943-25.39-9.943-20.177 0-30.028 6.355-30.028 24.784 0 18.589 9.85 24.944 30.028 24.944 12.376 0 20.931-3.38 25.525-10.14.183-.268.36-.543.53-.823l18.271 11.757a48.514 48.514 0 01-1.237 1.566c-9.904 12.021-25.108 18.452-43.09 18.452-30.98 0-53.54-17.635-53.54-45.756 0-27.962 22.56-45.755 53.54-45.755 17.977 0 33.177 6.573 43.081 18.459.425.51.84 1.03 1.246 1.559L92.45 55.288a19.448 19.448 0 00-.666-1.02zm53.133 61.153H119.02V9.93h25.897v105.492zm-1.986-103.506v101.52h-21.925V11.916h21.925zm18.967 37.47c6.656-8.157 17.245-14.036 32.817-14.036 15.571 0 26.197 5.878 32.892 14.03 6.64 8.086 9.289 18.249 9.289 26.72 0 8.473-2.649 18.636-9.289 26.721-6.695 8.153-17.321 14.031-32.892 14.031-15.572 0-26.161-5.879-32.817-14.036-6.6-8.087-9.205-18.25-9.205-26.715 0-8.466 2.605-18.628 9.205-26.715zm19.172 38.683c2.558 3.654 6.764 6.54 13.645 6.54 6.966 0 11.167-2.89 13.701-6.535 2.606-3.748 3.537-8.441 3.537-11.973s-.931-8.225-3.537-11.974c-2.534-3.644-6.735-6.535-13.701-6.535-6.881 0-11.087 2.886-13.645 6.54-2.628 3.755-3.593 8.45-3.593 11.969s.965 8.214 3.593 11.968zm141.243 25.367h-22.084v-32.41c0-15.41-1.588-23.672-9.85-23.672-8.42 0-16.841 6.514-21.766 13.345v42.737h-21.924v-74.67h21.924v9.373a48.297 48.297 0 011.986-1.661c6.603-5.228 15.098-9.142 23.593-9.142 17.794 0 28.121 11.28 28.121 43.69v32.41zm-51.714-69.46v-7.197h-25.896v78.643h25.896V71.35c2.293-3.057 5.311-6.011 8.678-8.226 3.563-2.344 7.396-3.784 11.102-3.784 1.718 0 2.913.421 3.808 1.115.919.712 1.712 1.857 2.346 3.625 1.298 3.625 1.71 9.213 1.71 16.946v34.396h26.056V81.026c0-16.339-2.588-27.762-7.746-35.137-5.27-7.534-12.994-10.54-22.361-10.54-8.53 0-16.925 3.676-23.593 8.627zm142.368 52.47l-1.136 1.721-1.657-1.095-15.411-9.373c0 .004-.007.016-.022.035-.495.657-9.512 9.815-20.632 9.815-11.357 0-17.377-8.274-19.526-15.65a24.963 24.963 0 01-.492-1.985h58.783c0-.636.04-1.271.08-1.907.04-.635.079-1.27.079-1.906 0-16.205-10.168-38.765-40.195-38.765s-40.036 22.56-40.036 38.765c0 16.205 10.009 38.765 40.036 38.765 20.867 0 32.536-11.842 36.126-16.205.811-.985 1.21-1.589 1.21-1.589 1.657 1.095 1.656 1.096 1.655 1.097l-.001.002-.004.006-.011.016-.035.051-.122.176c-.106.149-.258.36-.459.622a34.487 34.487 0 01-1.784 2.139 45.951 45.951 0 01-7.149 6.396c-6.411 4.647-16.145 9.275-29.426 9.275-15.571 0-26.16-5.879-32.817-14.036-6.599-8.087-9.205-18.25-9.205-26.715 0-8.466 2.606-18.628 9.205-26.715 6.657-8.157 17.246-14.036 32.817-14.036 15.571 0 26.197 5.878 32.893 14.03 6.639 8.086 9.288 18.249 9.288 26.72 0 .698-.043 1.385-.081 2.003l-.002.028c-.04.646-.076 1.22-.076 1.783V81.9h-58.204c2.12 6.702 7.586 13.663 17.453 13.663 5.177 0 9.957-2.204 13.529-4.541a35.798 35.798 0 004.184-3.199c.399-.356.72-.661.955-.895v-2.762l20.19 12.28zm-23.573-34.564c.768 1.168 1.079 1.986 1.079 1.986h-33.681s.195-.818.792-1.986c1.492-2.919 5.497-8.024 15.254-8.024 9.871 0 14.638 5.105 16.556 8.024zm-2.454 0c-.402-.5-.884-1.033-1.456-1.567-2.338-2.182-6.271-4.47-12.646-4.47-6.279 0-9.76 2.271-11.686 4.363a11.757 11.757 0 00-1.284 1.674h27.072zm113.021 18.437l21.784 14.018-1.292 1.709c-10.292 13.612-26.66 20.806-45.91 20.806-15.852 0-29.718-4.512-39.659-12.793-9.974-8.308-15.867-20.31-15.867-34.949 0-14.56 5.894-26.56 15.865-34.888 9.939-8.299 23.804-12.853 39.661-12.853 19.262 0 35.618 7.36 45.903 20.797l1.302 1.7-21.78 14.205-1.066-1.75c-3.926-6.45-11.801-10.01-24.359-10.01-9.968 0-16.911 1.59-21.357 5.061-4.327 3.379-6.684 8.87-6.684 17.738 0 8.954 2.361 14.484 6.687 17.88 4.445 3.489 11.386 5.078 21.354 5.078 12.558 0 20.433-3.559 24.359-10.01l1.059-1.739zm-.027-26.05c-4.625-6.629-13.135-9.943-25.391-9.943-20.177 0-30.027 6.355-30.027 24.784 0 18.589 9.85 24.944 30.027 24.944 12.377 0 20.932-3.38 25.526-10.14.183-.269.359-.543.529-.822l18.271 11.756a47.135 47.135 0 01-1.236 1.566c-9.904 12.021-25.108 18.452-43.09 18.452-30.98 0-53.54-17.635-53.54-45.756 0-27.962 22.56-45.755 53.54-45.755 17.976 0 33.177 6.573 43.081 18.459.425.51.84 1.03 1.245 1.559l-18.27 11.915a19.813 19.813 0 00-.665-1.02zm33.105-4.883c6.656-8.157 17.245-14.036 32.817-14.036 15.571 0 26.197 5.878 32.892 14.03 6.64 8.086 9.289 18.249 9.289 26.72 0 8.473-2.649 18.636-9.289 26.721-6.695 8.153-17.321 14.031-32.892 14.031-15.572 0-26.161-5.879-32.817-14.036-6.6-8.087-9.205-18.25-9.205-26.715 0-8.466 2.605-18.628 9.205-26.715zm19.172 38.683c2.558 3.654 6.764 6.54 13.645 6.54 6.966 0 11.167-2.89 13.701-6.535 2.606-3.748 3.537-8.441 3.537-11.973s-.931-8.225-3.537-11.974c-2.534-3.644-6.735-6.535-13.701-6.535-6.881 0-11.087 2.886-13.645 6.54-2.628 3.755-3.593 8.45-3.593 11.969s.965 8.214 3.593 11.968zm200.185 25.367h-22.083v-32.41c0-15.41-1.589-23.672-10.009-23.672-9.533 0-19.383 5.084-24.785 13.027.318 3.337.477 6.832.477 10.645v32.41h-21.925v-32.41c0-15.41-4.289-23.672-12.551-23.672-8.42 0-16.682 6.514-21.766 13.345v42.737H617.83v-74.67h21.924v9.373a48.297 48.297 0 011.986-1.661c6.603-5.228 15.098-9.142 23.593-9.142 10.48 0 20.292 4.666 24.43 11.313.379.608.71 1.233.99 1.873.451-.522.94-1.039 1.466-1.55 6.524-6.33 18.678-11.636 32.056-11.636 17.794 0 28.121 11.28 28.121 43.69v32.41zm-61.2-66.232c7.027-6.59 19.511-11.854 33.079-11.854 9.367 0 17.091 3.005 22.361 10.539 5.158 7.375 7.746 18.798 7.746 35.137v34.396h-26.055V81.026c0-7.735-.413-13.318-1.728-16.937-.641-1.765-1.444-2.91-2.382-3.624-.919-.7-2.147-1.125-3.913-1.125-8.658 0-17.638 4.525-22.741 11.585.28 3.183.419 6.508.419 10.1v34.397h-25.897V81.026c0-7.58-1.064-13.117-2.948-16.689-1.81-3.433-4.322-4.997-7.617-4.997-3.702 0-7.495 1.437-11.038 3.781-3.348 2.214-6.371 5.171-8.742 8.245v44.056h-25.896V36.779h25.896v7.197c6.668-4.951 15.063-8.626 23.593-8.626 6.029 0 11.866 1.462 16.665 3.957 3.819 1.986 7.074 4.677 9.198 7.897zm96.965 98.007h-21.925V38.765h21.925v7.626c.64-.506 1.303-.997 1.986-1.471 6.603-4.583 15.098-7.584 23.593-7.584 19.7 0 28.121 19.382 28.121 38.765s-13.822 38.765-33.364 38.765c-7.119 0-13.379-3.556-18.35-7.976a46.075 46.075 0 01-1.986-1.874v40.195zm1.986-35.708v37.694H764.25V36.779h25.897v5.75c6.733-4.365 15.141-7.18 23.593-7.18 10.628 0 18.252 5.282 23.129 13.044 4.826 7.679 6.978 17.772 6.978 27.708 0 20.072-14.344 40.751-35.35 40.751-7.139 0-13.372-3.259-18.35-7.349zm6.269-20.13c2.696 2.545 5.522 4.125 8.268 4.125 3.214 0 5.562-.824 7.314-2.03 1.766-1.218 3.044-2.908 3.966-4.813 1.868-3.863 2.145-8.347 2.145-10.554 0-2.884-.241-7.507-1.526-11.345-1.299-3.877-3.357-6.21-6.656-6.21-7.556 0-15.029 3.758-19.78 9.807v13.07c1.595 2.593 3.761 5.582 6.269 7.95zm-8.255-7.394c3.336 5.56 9.533 13.505 16.523 13.505 14.299 0 15.411-14.776 15.411-19.383 0-5.879-.953-19.542-10.168-19.542-8.421 0-16.682 4.29-21.766 11.121v14.3zm-633.482-5.878c0-16.205 10.009-38.765 40.036-38.765S234.91 59.895 234.91 76.1c0 16.205-10.168 38.765-40.195 38.765s-40.036-22.56-40.036-38.765zm20.812 0c0 7.626 4.131 20.495 19.224 20.495 15.252 0 19.224-12.87 19.224-20.495 0-7.626-3.972-20.495-19.224-20.495-15.093 0-19.224 12.869-19.224 20.495zm350.329 0c0-16.205 10.009-38.765 40.036-38.765s40.195 22.56 40.195 38.765c0 16.205-10.168 38.765-40.195 38.765s-40.036-22.56-40.036-38.765zm20.812 0c0 7.626 4.131 20.495 19.224 20.495 15.252 0 19.224-12.87 19.224-20.495 0-7.626-3.972-20.495-19.224-20.495-15.093 0-19.224 12.869-19.224 20.495z" fill="#fff" fill-opacity=".25"/></svg>