<svg width="872" height="175" fill="none" xmlns="http://www.w3.org/2000/svg"><path fill-rule="evenodd" clip-rule="evenodd" d="M99.755 88.263l21.785 14.017-1.292 1.709c-10.293 13.613-26.66 20.806-45.91 20.806-15.853 0-29.719-4.512-39.66-12.792-9.974-8.309-15.867-20.311-15.867-34.95 0-14.56 5.895-26.56 15.866-34.887 9.938-8.3 23.803-12.854 39.66-12.854 19.262 0 35.619 7.36 45.903 20.797l1.302 1.7-21.78 14.205-1.065-1.75c-3.927-6.45-11.802-10.009-24.36-10.009-9.968 0-16.911 1.589-21.357 5.06-4.326 3.379-6.684 8.87-6.684 17.739 0 8.954 2.36 14.484 6.688 17.88 4.444 3.488 11.385 5.077 21.354 5.077 12.557 0 20.432-3.558 24.359-10.009l1.058-1.74zm-.027-26.05c-4.625-6.63-13.135-9.944-25.39-9.944-20.177 0-30.028 6.355-30.028 24.785 0 18.588 9.85 24.943 30.028 24.943 12.376 0 20.931-3.38 25.525-10.139.183-.269.36-.544.53-.823l18.271 11.756a47.54 47.54 0 01-1.237 1.566c-9.904 12.021-25.108 18.453-43.09 18.453-30.98 0-53.54-17.636-53.54-45.756 0-27.962 22.56-45.756 53.54-45.756 17.977 0 33.177 6.573 43.081 18.46.425.51.84 1.029 1.246 1.558l-18.271 11.916a19.511 19.511 0 00-.665-1.02zm53.133 61.153h-25.897V17.873h25.897v105.493zm-1.986-103.507V121.38H128.95V19.859h21.925zm18.967 37.47c6.656-8.157 17.245-14.036 32.817-14.036 15.571 0 26.197 5.878 32.892 14.031 6.64 8.085 9.289 18.248 9.289 26.72 0 8.472-2.649 18.635-9.289 26.72-6.695 8.153-17.321 14.031-32.892 14.031-15.572 0-26.161-5.879-32.817-14.036-6.6-8.087-9.205-18.25-9.205-26.715s2.605-18.628 9.205-26.715zm19.172 38.684c2.558 3.653 6.764 6.54 13.645 6.54 6.966 0 11.167-2.891 13.701-6.535 2.606-3.749 3.537-8.442 3.537-11.974s-.931-8.225-3.537-11.973c-2.534-3.644-6.735-6.536-13.701-6.536-6.881 0-11.087 2.887-13.645 6.54-2.628 3.755-3.593 8.45-3.593 11.97 0 3.518.965 8.213 3.593 11.968zm141.243 25.367h-22.084V88.97c0-15.412-1.589-23.673-9.85-23.673-8.42 0-16.841 6.514-21.766 13.346v42.737h-21.924V46.709h21.924v9.373a48.297 48.297 0 011.986-1.661c6.603-5.227 15.098-9.142 23.593-9.142 17.794 0 28.121 11.28 28.121 43.69v32.411zm-51.714-69.461v-7.196h-25.896v78.643h25.896V79.294c2.293-3.058 5.311-6.012 8.678-8.227 3.562-2.344 7.396-3.784 11.102-3.784 1.718 0 2.913.422 3.808 1.116.919.712 1.712 1.856 2.346 3.625 1.298 3.624 1.71 9.213 1.71 16.945v34.397h26.056V88.969c0-16.338-2.588-27.762-7.747-35.137-5.269-7.534-12.994-10.54-22.36-10.54-8.53 0-16.925 3.676-23.593 8.627zm142.368 52.471l-1.137 1.72-1.657-1.094-15.41-9.374a.12.12 0 01-.022.035c-.495.658-9.513 9.815-20.632 9.815-11.358 0-17.377-8.274-19.526-15.649a24.973 24.973 0 01-.492-1.986h58.783c0-.635.04-1.27.08-1.906.039-.636.079-1.271.079-1.907 0-16.205-10.168-38.765-40.195-38.765s-40.036 22.56-40.036 38.765c0 16.205 10.009 38.766 40.036 38.766 20.867 0 32.535-11.843 36.126-16.206.811-.985 1.209-1.588 1.209-1.588a159.505 159.505 0 011.656 1.096l-.001.002-.004.006-.011.016-.035.052-.122.176c-.106.148-.259.358-.459.621a34.577 34.577 0 01-1.784 2.14 45.972 45.972 0 01-7.15 6.395c-6.411 4.648-16.144 9.275-29.425 9.275-15.572 0-26.16-5.879-32.817-14.036-6.6-8.087-9.205-18.25-9.205-26.715s2.605-18.628 9.205-26.715c6.657-8.157 17.245-14.036 32.817-14.036 15.571 0 26.197 5.878 32.893 14.031 6.639 8.085 9.288 18.248 9.288 26.72 0 .697-.043 1.384-.081 2.002l-.002.028a28.32 28.32 0 00-.076 1.783v1.986H364.6c2.12 6.702 7.586 13.663 17.453 13.663 5.177 0 9.957-2.204 13.529-4.541a35.667 35.667 0 004.183-3.198c.4-.357.72-.662.956-.896V92.11l20.19 12.28zm-23.573-34.565c.768 1.168 1.079 1.986 1.079 1.986h-33.681s.194-.818.792-1.986c1.492-2.918 5.496-8.023 15.254-8.023 9.871 0 14.637 5.105 16.556 8.023zm-2.455 0a14.87 14.87 0 00-1.455-1.567c-2.338-2.182-6.271-4.47-12.646-4.47-6.279 0-9.76 2.272-11.686 4.363a11.763 11.763 0 00-1.284 1.674h27.071zm113.022 18.438l21.784 14.017-1.292 1.709c-10.292 13.613-26.66 20.806-45.91 20.806-15.853 0-29.718-4.512-39.659-12.792-9.975-8.309-15.867-20.311-15.867-34.95 0-14.56 5.894-26.56 15.865-34.887 9.939-8.3 23.804-12.854 39.661-12.854 19.262 0 35.618 7.36 45.903 20.797l1.302 1.7-21.781 14.205-1.065-1.75c-3.926-6.45-11.801-10.009-24.359-10.009-9.968 0-16.911 1.589-21.358 5.06-4.326 3.379-6.683 8.87-6.683 17.739 0 8.954 2.361 14.484 6.687 17.88 4.445 3.488 11.385 5.077 21.354 5.077 12.558 0 20.433-3.558 24.359-10.009l1.059-1.74zm-.027-26.05c-4.626-6.63-13.135-9.944-25.391-9.944-20.177 0-30.027 6.355-30.027 24.785 0 18.588 9.85 24.943 30.027 24.943 12.377 0 20.932-3.38 25.526-10.14.183-.268.359-.542.529-.822l18.271 11.756a46.216 46.216 0 01-1.236 1.566c-9.904 12.021-25.108 18.453-43.09 18.453-30.98 0-53.54-17.636-53.54-45.756 0-27.962 22.56-45.756 53.54-45.756 17.976 0 33.177 6.573 43.081 18.46.425.51.84 1.029 1.245 1.558l-18.27 11.916c-.001 0 0 0 0 0a19.767 19.767 0 00-.665-1.02zm33.105-4.884c6.656-8.157 17.245-14.036 32.817-14.036 15.571 0 26.197 5.878 32.892 14.031 6.64 8.085 9.289 18.248 9.289 26.72 0 8.472-2.649 18.635-9.289 26.72-6.695 8.153-17.321 14.031-32.892 14.031-15.572 0-26.161-5.879-32.817-14.036-6.6-8.087-9.205-18.25-9.205-26.715s2.605-18.628 9.205-26.715zm19.172 38.684c2.558 3.653 6.764 6.54 13.645 6.54 6.966 0 11.167-2.891 13.701-6.535 2.606-3.749 3.537-8.442 3.537-11.974s-.931-8.225-3.537-11.973c-2.534-3.644-6.735-6.536-13.701-6.536-6.881 0-11.087 2.887-13.645 6.54-2.628 3.755-3.593 8.45-3.593 11.97 0 3.518.965 8.213 3.593 11.968zM760.34 121.38h-22.084V88.97c0-15.412-1.588-23.673-10.009-23.673-9.532 0-19.382 5.084-24.784 13.028.318 3.336.477 6.831.477 10.644v32.411h-21.925V88.97c0-15.412-4.29-23.673-12.551-23.673-8.42 0-16.682 6.514-21.766 13.346v42.737h-21.924V46.709h21.924v9.373a48.297 48.297 0 011.986-1.661c6.603-5.227 15.098-9.142 23.593-9.142 10.479 0 20.292 4.667 24.43 11.313.379.609.71 1.234.99 1.873.45-.521.94-1.039 1.466-1.55 6.523-6.33 18.678-11.636 32.056-11.636 17.794 0 28.121 11.28 28.121 43.69v32.411zm-61.2-66.233c7.026-6.59 19.511-11.854 33.079-11.854 9.367 0 17.091 3.005 22.361 10.539 5.158 7.375 7.746 18.799 7.746 35.137v34.397h-26.055V88.969c0-7.734-.413-13.317-1.728-16.937-.641-1.764-1.444-2.909-2.383-3.623-.918-.7-2.146-1.126-3.913-1.126-8.657 0-17.637 4.525-22.74 11.585.28 3.184.419 6.509.419 10.101v34.397h-25.897V88.969c0-7.58-1.064-13.117-2.948-16.688-1.81-3.434-4.322-4.998-7.617-4.998-3.702 0-7.495 1.438-11.039 3.781-3.347 2.214-6.37 5.172-8.741 8.246v44.056h-25.896V44.723h25.896v7.196c6.668-4.951 15.063-8.626 23.593-8.626 6.029 0 11.865 1.463 16.664 3.957 3.82 1.986 7.075 4.677 9.199 7.897zm96.965 98.007H774.18V46.709h21.925v7.626a39.51 39.51 0 011.986-1.472c6.603-4.583 15.098-7.584 23.593-7.584 19.7 0 28.12 19.383 28.12 38.765 0 19.383-13.822 38.766-33.363 38.766-7.119 0-13.379-3.557-18.35-7.976a46.128 46.128 0 01-1.986-1.875v40.195zm1.986-35.708v37.694h-25.897V44.723h25.897v5.75c6.733-4.366 15.141-7.18 23.593-7.18 10.628 0 18.252 5.282 23.129 13.043 4.826 7.68 6.977 17.772 6.977 27.708 0 20.072-14.343 40.751-35.349 40.751-7.139 0-13.372-3.259-18.35-7.349zm6.268-20.13c2.697 2.545 5.523 4.125 8.269 4.125 3.213 0 5.562-.824 7.313-2.03 1.767-1.218 3.045-2.908 3.966-4.813 1.869-3.862 2.146-8.347 2.146-10.554 0-2.884-.241-7.507-1.526-11.344-1.299-3.878-3.357-6.211-6.656-6.211-7.556 0-15.03 3.758-19.78 9.807v13.07c1.595 2.594 3.761 5.582 6.268 7.95zm-8.254-7.394c3.336 5.561 9.532 13.505 16.523 13.505 14.299 0 15.411-14.776 15.411-19.383 0-5.878-.954-19.541-10.168-19.541-8.421 0-16.682 4.29-21.766 11.12v14.3zm-633.483-5.878c0-16.205 10.01-38.765 40.037-38.765s40.195 22.56 40.195 38.765c0 16.205-10.168 38.766-40.195 38.766s-40.037-22.561-40.037-38.766zm20.813 0c0 7.626 4.131 20.495 19.224 20.495 15.252 0 19.224-12.869 19.224-20.495 0-7.626-3.972-20.495-19.224-20.495-15.093 0-19.224 12.87-19.224 20.495zm350.328 0c0-16.205 10.01-38.765 40.037-38.765s40.195 22.56 40.195 38.765c0 16.205-10.168 38.766-40.195 38.766s-40.037-22.561-40.037-38.766zm20.813 0c0 7.626 4.131 20.495 19.224 20.495 15.252 0 19.224-12.869 19.224-20.495 0-7.626-3.972-20.495-19.224-20.495-15.093 0-19.224 12.87-19.224 20.495z" fill="#fff" fill-opacity=".25"/></svg>