<svg width="174" height="98" viewBox="0 0 174 98" fill="none" xmlns="http://www.w3.org/2000/svg">
<path fill-rule="evenodd" clip-rule="evenodd" d="M153.206 4.08176L7.84074 39.278C5.01596 39.9619 3.28047 42.8063 3.96441 45.631L14.7188 90.0483C15.4027 92.873 18.2471 94.6085 21.0719 93.9246L166.437 58.7284C169.262 58.0445 170.998 55.2001 170.314 52.3753L159.559 7.95809C158.875 5.13331 156.031 3.39782 153.206 4.08176ZM7.44967 37.6628C3.73286 38.5627 1.44932 42.3053 2.34924 46.0221L13.1036 90.4393C14.0036 94.1562 17.7462 96.4397 21.463 95.5398L166.828 60.3436C170.545 59.4437 172.829 55.7011 171.929 51.9842L161.174 7.56702C160.275 3.85021 156.532 1.56667 152.815 2.46659L7.44967 37.6628Z" fill="#333333"/>
<path d="M38.9904 58.5238C37.8014 55.8364 35.1512 54.7213 32.3942 55.3888C28.8878 56.2378 26.9995 59.5569 28.0494 63.8931C29.0993 68.2292 32.2967 70.317 35.8031 69.468C38.56 68.8005 40.4066 66.5966 40.2347 63.663L38.5752 64.0648C38.6338 66.0624 37.2473 67.4749 35.4272 67.9156C32.9379 68.5183 30.5173 67.0642 29.6554 63.5042C28.7934 59.9443 30.2808 57.544 32.7701 56.9413C34.5902 56.5006 36.4692 57.1224 37.3309 58.9256L38.9904 58.5238Z" fill="#333333"/>
<path d="M42.0002 53.2613L40.421 53.6437L43.7392 67.3482L45.3184 66.9658L42.0002 53.2613Z" fill="#333333"/>
<path d="M52.4383 65.4686C55.222 64.7946 56.5837 62.2264 55.8125 59.0412C55.0348 55.8292 52.6492 54.1683 49.8654 54.8423C47.0817 55.5163 45.72 58.0845 46.4977 61.2965C47.2689 64.4817 49.6546 66.1426 52.4383 65.4686ZM52.0948 64.05C49.9803 64.5619 48.576 62.9751 48.077 60.9141C47.5779 58.8531 48.0944 56.7729 50.2089 56.2609C52.3235 55.7489 53.7342 57.3625 54.2333 59.4235C54.7323 61.4845 54.2094 63.538 52.0948 64.05Z" fill="#333333"/>
<path d="M59.5367 56.9777C59.1025 55.1843 59.967 53.8982 61.4793 53.5321C62.9448 53.1773 64.0665 53.9187 64.4569 55.5314L66.0123 61.9553L67.5915 61.573L66.0102 55.0419C65.3751 52.4188 63.672 51.4994 61.5909 52.0033C60.0384 52.3792 59.2433 53.3084 59.0143 54.4689L58.8804 54.5014L58.4916 52.8954L56.9659 53.2648L59.4545 63.5431L61.0337 63.1608L59.5367 56.9777Z" fill="#333333"/>
<path d="M74.8386 60.045C76.9264 59.5395 78.1993 58.1262 78.3052 56.4571L76.6758 56.3982C76.5336 57.5661 75.7331 58.3266 74.4951 58.6264C72.6415 59.0752 71.0734 58.1868 70.4667 56.0031L77.9279 54.1966L77.7659 53.5274C76.8392 49.6998 74.2464 48.9391 72.1051 49.4575C69.3214 50.1315 68.0059 52.7736 68.7707 55.932C69.5354 59.0905 71.8675 60.7644 74.8386 60.045ZM70.1362 54.638C69.8561 53.0128 70.6419 51.3136 72.4486 50.8762C74.1617 50.4614 75.5702 51.4805 75.9914 53.2203L70.1362 54.638Z" fill="#333333"/>
<path d="M86.9588 56.8837L88.6184 56.4819L87.4065 51.4766L90.4043 50.7507C93.5962 49.9779 94.5651 47.689 93.9786 45.2666C93.3921 42.8442 91.49 41.2787 88.2713 42.0581L83.6407 43.1792L86.9588 56.8837ZM87.05 50.0044L85.6567 44.2496L88.5742 43.5432C90.8025 43.0037 91.9472 44.0158 92.3458 45.6619C92.7444 47.3081 92.1959 48.7585 89.9943 49.2915L87.05 50.0044Z" fill="#333333"/>
<path d="M98.706 54.0395L100.285 53.6571L98.7104 47.1528C98.3734 45.761 99.2246 44.4781 100.724 44.1152C101.145 44.0131 101.599 43.9881 101.713 43.989L101.324 42.383C101.14 42.4133 100.722 42.5004 100.488 42.5571C99.2567 42.8552 98.3545 43.8104 98.226 44.9182L98.119 44.9442L97.7431 43.3917L96.2174 43.7611L98.706 54.0395Z" fill="#333333"/>
<path d="M109.632 51.6208C112.416 50.9468 113.777 48.3786 113.006 45.1933C112.228 41.9814 109.843 40.3205 107.059 40.9945C104.275 41.6685 102.914 44.2367 103.691 47.4487C104.462 50.6339 106.848 52.2948 109.632 51.6208ZM109.288 50.2022C107.174 50.7141 105.769 49.1273 105.27 47.0663C104.771 45.0053 105.288 42.9251 107.402 42.4131C109.517 41.9011 110.928 43.5147 111.427 45.5757C111.926 47.6367 111.403 49.6902 109.288 50.2022Z" fill="#333333"/>
<path d="M114.159 39.417L116.829 50.4448C117.082 51.4887 116.797 52.1812 115.833 52.4145L115.538 52.4858L115.895 53.958L116.216 53.8802C118.197 53.4007 118.869 51.9628 118.409 50.0624L115.739 39.0346L114.159 39.417ZM114.521 37.516C115.136 37.3669 115.528 36.762 115.386 36.1731C115.243 35.5842 114.618 35.2256 114.002 35.3746C113.387 35.5237 112.995 36.1286 113.137 36.7175C113.28 37.3063 113.905 37.665 114.521 37.516Z" fill="#333333"/>
<path d="M125.481 47.7834C127.569 47.2779 128.842 45.8646 128.948 44.1954L127.318 44.1366C127.176 45.3045 126.375 46.065 125.137 46.3647C123.284 46.8135 121.716 45.9252 121.109 43.7414L128.57 41.9349L128.408 41.2658C127.482 37.4381 124.889 36.6774 122.747 37.1959C119.964 37.8699 118.648 40.5119 119.413 43.6704C120.178 46.8289 122.51 48.5027 125.481 47.7834ZM120.779 42.3763C120.498 40.7511 121.284 39.052 123.091 38.6145C124.804 38.1998 126.213 39.2189 126.634 40.9587L120.779 42.3763Z" fill="#333333"/>
<path d="M136.315 45.1603C138.59 44.6094 139.752 42.8546 139.579 40.9697L138 41.352C137.977 42.5475 137.203 43.4435 135.971 43.7416C134.098 44.1953 132.517 42.9345 131.94 40.5522C131.377 38.2235 132.238 36.3997 134.085 35.9526C135.477 35.6156 136.514 36.2712 136.982 37.1497L138.561 36.7673C137.827 34.9049 135.883 34.0155 133.715 34.5404C130.931 35.2144 129.616 37.8564 130.374 40.9881C131.119 44.0663 133.424 45.8602 136.315 45.1603Z" fill="#333333"/>
<path d="M144.595 32.0479L142.4 32.5793L141.804 30.1168L140.224 30.4992L140.821 32.9617L139.268 33.3376L139.592 34.6759L141.145 34.3L142.7 40.724C143.134 42.5174 144.787 43.0239 146.125 42.6999C146.714 42.5573 147.063 42.3595 147.258 42.2274L146.593 40.8865C146.466 40.9457 146.264 41.0511 145.917 41.1353C145.221 41.3038 144.5 41.2517 144.176 39.9134L142.724 33.9177L144.919 33.3862L144.595 32.0479Z" fill="#333333"/>
</svg>
