<svg width="872" height="176" fill="none" xmlns="http://www.w3.org/2000/svg"><path fill-rule="evenodd" clip-rule="evenodd" d="M87.84 76.515l21.784 14.017-1.292 1.709c-10.292 13.613-26.66 20.806-45.91 20.806-15.853 0-29.718-4.512-39.659-12.792-9.975-8.31-15.867-20.312-15.867-34.95 0-14.56 5.894-26.56 15.865-34.887 9.939-8.3 23.804-12.854 39.661-12.854 19.262 0 35.618 7.36 45.903 20.797l1.302 1.7-21.78 14.205-1.066-1.75c-3.926-6.45-11.802-10.009-24.359-10.009-9.968 0-16.911 1.589-21.358 5.06-4.326 3.379-6.683 8.87-6.683 17.739 0 8.954 2.36 14.484 6.687 17.88 4.445 3.488 11.385 5.077 21.354 5.077 12.558 0 20.433-3.559 24.36-10.009l1.058-1.74zm-.028-26.051c-4.625-6.628-13.134-9.943-25.39-9.943-20.177 0-30.027 6.355-30.027 24.785 0 18.588 9.85 24.943 30.027 24.943 12.376 0 20.932-3.38 25.526-10.139.183-.27.36-.544.53-.823l18.27 11.756a47.031 47.031 0 01-1.236 1.566c-9.904 12.021-25.109 18.452-43.09 18.452-30.98 0-53.54-17.635-53.54-45.755 0-27.962 22.56-45.756 53.54-45.756 17.976 0 33.177 6.573 43.081 18.46.425.509.84 1.029 1.245 1.558l-18.27 11.916a19.49 19.49 0 00-.665-1.02zm53.133 61.154h-25.896V6.125h25.896v105.493zM138.959 8.111v101.521h-21.924V8.111h21.924zm18.967 37.47c6.657-8.157 17.246-14.036 32.817-14.036 15.571 0 26.197 5.878 32.893 14.031 6.639 8.085 9.288 18.248 9.288 26.72 0 8.472-2.649 18.635-9.288 26.72-6.696 8.153-17.322 14.031-32.893 14.031-15.571 0-26.16-5.879-32.817-14.036-6.599-8.087-9.205-18.25-9.205-26.715s2.606-18.628 9.205-26.715zm19.172 38.683c2.558 3.654 6.764 6.541 13.645 6.541 6.967 0 11.167-2.891 13.701-6.535 2.606-3.749 3.537-8.442 3.537-11.974s-.931-8.225-3.537-11.973c-2.534-3.645-6.734-6.536-13.701-6.536-6.881 0-11.087 2.887-13.645 6.54-2.628 3.755-3.593 8.45-3.593 11.97 0 3.518.965 8.213 3.593 11.967zm141.243 25.368h-22.083v-32.41c0-15.412-1.589-23.673-9.851-23.673-8.42 0-16.84 6.514-21.765 13.345v42.738h-21.925V34.961h21.925v9.373c.64-.566 1.303-1.12 1.986-1.661 6.603-5.228 15.097-9.142 23.592-9.142 17.794 0 28.121 11.28 28.121 43.69v32.411zm-51.713-69.461v-7.196h-25.897v78.643h25.897V67.546c2.293-3.058 5.311-6.012 8.677-8.227 3.563-2.344 7.397-3.784 11.102-3.784 1.718 0 2.913.422 3.809 1.116.919.711 1.711 1.856 2.345 3.625 1.298 3.624 1.711 9.213 1.711 16.945v34.397h26.055V77.221c0-16.338-2.588-27.762-7.746-35.137-5.27-7.534-12.994-10.54-22.361-10.54-8.53 0-16.925 3.676-23.592 8.627zm142.367 52.471l-1.136 1.72-1.657-1.094-15.411-9.374c0 .004-.007.016-.021.035-.495.658-9.513 9.815-20.633 9.815-11.357 0-17.377-8.274-19.526-15.649a25.403 25.403 0 01-.492-1.986h58.784c0-.635.04-1.27.079-1.906.04-.636.08-1.271.08-1.907 0-16.205-10.168-38.765-40.195-38.765-30.028 0-40.037 22.56-40.037 38.765 0 16.205 10.009 38.765 40.037 38.765 20.867 0 32.535-11.842 36.125-16.205.811-.985 1.21-1.588 1.21-1.588 1.657 1.094 1.656 1.095 1.656 1.096l-.002.002-.004.006-.01.016-.035.052-.123.176c-.105.148-.258.358-.459.621a34.6 34.6 0 01-1.784 2.14 45.936 45.936 0 01-7.149 6.395c-6.411 4.648-16.144 9.275-29.425 9.275-15.572 0-26.161-5.879-32.817-14.036-6.6-8.087-9.206-18.25-9.206-26.715s2.606-18.628 9.206-26.715c6.656-8.157 17.245-14.036 32.817-14.036 15.57 0 26.196 5.878 32.892 14.031 6.64 8.085 9.289 18.248 9.289 26.72 0 .697-.043 1.384-.082 2.002l-.002.028c-.04.646-.075 1.22-.075 1.783v1.986h-58.205c2.12 6.702 7.586 13.663 17.453 13.663 5.177 0 9.957-2.204 13.53-4.541a35.85 35.85 0 004.183-3.198c.399-.357.72-.662.955-.896v-2.761l20.19 12.28zm-23.573-34.565c.768 1.168 1.08 1.986 1.08 1.986H352.82s.195-.818.792-1.986c1.492-2.919 5.497-8.023 15.255-8.023 9.871 0 14.637 5.104 16.555 8.023zm-2.454 0c-.402-.5-.884-1.033-1.456-1.567-2.338-2.182-6.27-4.47-12.645-4.47-6.28 0-9.76 2.272-11.686 4.363a11.757 11.757 0 00-1.284 1.674h27.071zm113.021 18.438l21.785 14.017-1.292 1.709c-10.293 13.613-26.661 20.806-45.91 20.806-15.853 0-29.719-4.512-39.659-12.792-9.975-8.31-15.868-20.312-15.868-34.95 0-14.56 5.895-26.56 15.866-34.887 9.938-8.3 23.804-12.854 39.661-12.854 19.261 0 35.618 7.36 45.903 20.797l1.301 1.7-21.78 14.205-1.065-1.75c-3.927-6.45-11.802-10.009-24.359-10.009-9.969 0-16.912 1.589-21.358 5.06-4.326 3.379-6.684 8.87-6.684 17.739 0 8.954 2.361 14.484 6.688 17.88 4.445 3.488 11.385 5.077 21.354 5.077 12.557 0 20.432-3.559 24.359-10.009l1.058-1.74zm-.027-26.05c-4.625-6.63-13.134-9.944-25.39-9.944-20.177 0-30.028 6.355-30.028 24.785 0 18.588 9.851 24.943 30.028 24.943 12.376 0 20.932-3.38 25.525-10.14.183-.268.36-.542.53-.822l18.271 11.756a48.404 48.404 0 01-1.237 1.566c-9.904 12.021-25.108 18.452-43.089 18.452-30.981 0-53.541-17.635-53.541-45.755 0-27.962 22.56-45.756 53.541-45.756 17.976 0 33.176 6.573 43.08 18.46.425.509.84 1.029 1.246 1.558l-18.271 11.916a19.813 19.813 0 00-.665-1.02zm33.105-4.884c6.657-8.157 17.246-14.036 32.817-14.036 15.571 0 26.197 5.878 32.893 14.031 6.639 8.085 9.288 18.248 9.288 26.72 0 8.472-2.649 18.635-9.288 26.72-6.696 8.153-17.322 14.031-32.893 14.031-15.571 0-26.16-5.879-32.817-14.036-6.599-8.087-9.205-18.25-9.205-26.715s2.606-18.628 9.205-26.715zm19.172 38.683c2.558 3.654 6.764 6.541 13.645 6.541 6.967 0 11.167-2.891 13.701-6.535 2.606-3.749 3.537-8.442 3.537-11.974s-.931-8.225-3.537-11.973c-2.534-3.645-6.734-6.536-13.701-6.536-6.881 0-11.087 2.887-13.645 6.54-2.628 3.755-3.593 8.45-3.593 11.97 0 3.518.965 8.213 3.593 11.967zm200.185 25.368h-22.083v-32.41c0-15.412-1.589-23.673-10.009-23.673-9.533 0-19.383 5.084-24.784 13.028.317 3.336.476 6.831.476 10.644v32.411H670.1v-32.41c0-15.412-4.29-23.673-12.552-23.673-8.42 0-16.681 6.514-21.765 13.345v42.738h-21.925V34.961h21.925v9.373c.64-.566 1.303-1.12 1.986-1.661 6.602-5.228 15.097-9.142 23.592-9.142 10.48 0 20.292 4.667 24.43 11.313.379.608.71 1.234.99 1.873.451-.521.94-1.039 1.466-1.55 6.524-6.33 18.678-11.636 32.057-11.636 17.794 0 28.12 11.28 28.12 43.69v32.411zm-61.2-66.233c7.027-6.59 19.511-11.854 33.08-11.854 9.366 0 17.091 3.005 22.36 10.539 5.158 7.375 7.746 18.799 7.746 35.137v34.397h-26.055V77.221c0-7.734-.413-13.317-1.728-16.937-.64-1.764-1.444-2.909-2.382-3.623-.918-.7-2.147-1.126-3.913-1.126-8.658 0-17.637 4.525-22.741 11.585.28 3.184.419 6.509.419 10.101v34.397h-25.896V77.221c0-7.58-1.065-13.117-2.949-16.689-1.81-3.432-4.322-4.997-7.617-4.997-3.702 0-7.495 1.438-11.038 3.781-3.347 2.214-6.371 5.171-8.741 8.246v44.056h-25.897V32.975h25.897v7.196c6.667-4.951 15.062-8.626 23.592-8.626 6.03 0 11.866 1.463 16.665 3.957 3.82 1.986 7.075 4.677 9.198 7.897zm96.965 98.007h-21.924V34.961h21.924v7.626a40.034 40.034 0 011.986-1.472c6.603-4.583 15.098-7.584 23.593-7.584 19.701 0 28.121 19.383 28.121 38.765 0 19.383-13.822 38.765-33.364 38.765-7.118 0-13.379-3.556-18.35-7.975a46.723 46.723 0 01-1.986-1.875v40.195zm1.986-35.708v37.694h-25.896V32.975h25.896v5.75c6.733-4.366 15.141-7.18 23.593-7.18 10.628 0 18.252 5.282 23.13 13.043 4.825 7.68 6.977 17.772 6.977 27.708 0 20.072-14.344 40.751-35.35 40.751-7.139 0-13.372-3.259-18.35-7.349zm6.269-20.13c2.696 2.545 5.522 4.125 8.268 4.125 3.214 0 5.563-.824 7.314-2.03 1.767-1.218 3.045-2.908 3.966-4.813 1.869-3.862 2.145-8.347 2.145-10.554 0-2.884-.24-7.507-1.525-11.344-1.299-3.878-3.358-6.212-6.657-6.212-7.555 0-15.029 3.76-19.78 9.808v13.07c1.595 2.593 3.761 5.582 6.269 7.95zm-8.255-7.394c3.337 5.561 9.533 13.505 16.523 13.505 14.299 0 15.411-14.776 15.411-19.383 0-5.878-.953-19.541-10.168-19.541-8.42 0-16.682 4.29-21.766 11.12v14.3zm-633.482-5.878c0-16.205 10.009-38.765 40.036-38.765s40.195 22.56 40.195 38.765c0 16.205-10.168 38.765-40.195 38.765s-40.036-22.56-40.036-38.765zm20.812 0c0 7.626 4.131 20.495 19.224 20.495 15.252 0 19.224-12.869 19.224-20.495 0-7.626-3.972-20.495-19.224-20.495-15.093 0-19.224 12.87-19.224 20.495zm350.329 0c0-16.205 10.009-38.765 40.036-38.765s40.195 22.56 40.195 38.765c0 16.205-10.168 38.765-40.195 38.765s-40.036-22.56-40.036-38.765zm20.812 0c0 7.626 4.131 20.495 19.224 20.495 15.252 0 19.224-12.869 19.224-20.495 0-7.626-3.972-20.495-19.224-20.495-15.093 0-19.224 12.87-19.224 20.495z" fill="#fff" fill-opacity=".25"/></svg>