<?xml version="1.0" encoding="UTF-8" standalone="no" ?>
<!DOCTYPE svg PUBLIC "-//W3C//DTD SVG 1.1//EN" "http://www.w3.org/Graphics/SVG/1.1/DTD/svg11.dtd">
<svg xmlns="http://www.w3.org/2000/svg" xmlns:xlink="http://www.w3.org/1999/xlink" version="1.1" width="1080" height="1080" viewBox="0 0 1080 1080" xml:space="preserve">
<desc>Created with Fabric.js 5.2.4</desc>
<defs>
</defs>
<rect x="0" y="0" width="100%" height="100%" fill="transparent"></rect>
<g transform="matrix(1 0 0 1 540 540)" id="72ffa237-5ec4-48f5-98cb-56f6b3c7750f"  >
<rect style="stroke: none; stroke-width: 1; stroke-dasharray: none; stroke-linecap: butt; stroke-dashoffset: 0; stroke-linejoin: miter; stroke-miterlimit: 4; fill: rgb(255,255,255); fill-rule: nonzero; opacity: 1; visibility: hidden;" vector-effect="non-scaling-stroke"  x="-540" y="-540" rx="0" ry="0" width="1080" height="1080" />
</g>
<g transform="matrix(1 0 0 1 540 540)" id="e0dc7701-6d02-472d-8b09-78442c44d9c0"  >
</g>
<g transform="matrix(3.65 0 0 3.65 539.5 539.5)"  >
<path style="stroke: rgb(51,51,51); stroke-width: 0; stroke-dasharray: none; stroke-linecap: butt; stroke-dashoffset: 0; stroke-linejoin: miter; stroke-miterlimit: 4; fill: rgb(51,51,51); fill-rule: evenodd; opacity: 1;" vector-effect="non-scaling-stroke"  transform=" translate(-142.49, -111.31)" d="M 280.614 2.19064 L 4.3642 2.19064 C 3.21993 2.19064 2.29232 3.11825 2.29232 4.26251 L 2.29232 218.356 C 2.29232 219.501 3.21993 220.428 4.36419 220.428 L 280.614 220.428 C 281.758 220.428 282.686 219.501 282.686 218.356 L 282.686 4.26251 C 282.686 3.11825 281.758 2.19064 280.614 2.19064 Z M 4.3642 0.809387 C 2.45709 0.809387 0.911072 2.3554 0.911072 4.26251 L 0.911072 218.356 C 0.911072 220.263 2.45709 221.809 4.36419 221.809 L 280.614 221.809 C 282.521 221.809 284.067 220.263 284.067 218.356 L 284.067 4.26251 C 284.067 2.3554 282.521 0.809387 280.614 0.809387 L 4.3642 0.809387 Z" stroke-linecap="round" />
</g>
<g transform="matrix(3.65 0 0 3.65 539.5 830.87)"  >
<path style="stroke: rgb(51,51,51); stroke-width: 0; stroke-dasharray: none; stroke-linecap: butt; stroke-dashoffset: 0; stroke-linejoin: miter; stroke-miterlimit: 4; fill: rgb(51,51,51); fill-rule: evenodd; opacity: 1;" vector-effect="non-scaling-stroke"  transform=" translate(-142.14, -190.04)" d="M 282.686 190.731 L 1.60168 190.731 L 1.60168 189.35 L 282.686 189.35 L 282.686 190.731 Z" stroke-linecap="round" />
</g>
<g transform="matrix(3.65 0 0 3.65 763.78 889.92)"  >
<path style="stroke: none; stroke-width: 1; stroke-dasharray: none; stroke-linecap: butt; stroke-dashoffset: 0; stroke-linejoin: miter; stroke-miterlimit: 4; fill: rgb(51,51,51); fill-rule: nonzero; opacity: 1;" vector-effect="non-scaling-stroke"  transform=" translate(-215.85, -206.62)" d="M 209.48 201.091 L 222.23 201.091 L 222.23 212.141 L 209.48 212.141 L 209.48 201.091 Z" stroke-linecap="round" />
</g>
<g transform="matrix(3.65 0 0 3.65 76.68 900.01)"  >
<path style="stroke: none; stroke-width: 1; stroke-dasharray: none; stroke-linecap: butt; stroke-dashoffset: 0; stroke-linejoin: miter; stroke-miterlimit: 4; fill: rgb(51,51,51); fill-rule: nonzero; opacity: 1;" vector-effect="non-scaling-stroke"  transform=" translate(-16.28, -209.38)" d="M 17.8313 207.997 L 14.7235 210.759 L 14.7235 207.997 L 17.8313 207.997 Z" stroke-linecap="round" />
</g>
<g transform="matrix(3.65 0 0 3.65 88.67 882.35)"  >
<path style="stroke: none; stroke-width: 1; stroke-dasharray: none; stroke-linecap: butt; stroke-dashoffset: 0; stroke-linejoin: miter; stroke-miterlimit: 4; fill: rgb(51,51,51); fill-rule: nonzero; opacity: 1;" vector-effect="non-scaling-stroke"  transform=" translate(-19.56, -204.54)" d="M 14.7236 203.853 C 14.7236 202.327 15.9604 201.091 17.4861 201.091 L 21.6298 201.091 C 23.1555 201.091 24.3923 202.327 24.3923 203.853 L 24.3923 205.234 C 24.3923 206.76 23.1555 207.997 21.6298 207.997 L 14.7236 207.997 L 14.7236 203.853 Z" stroke-linecap="round" />
</g>
<g transform="matrix(3.65 0 0 3.65 142.93 887.17)"  >
<path style="stroke: none; stroke-width: 1; stroke-dasharray: none; stroke-linecap: butt; stroke-dashoffset: 0; stroke-linejoin: miter; stroke-miterlimit: 4; fill: rgb(51,51,51); fill-rule: nonzero; opacity: 1;" vector-effect="non-scaling-stroke"  transform=" translate(-34.41, -205.86)" d="M 31.8677 207.936 L 35.1776 207.936 L 35.1776 209.378 L 35.9879 209.378 L 35.9879 207.936 L 36.9493 207.936 L 36.9493 207.181 L 35.9879 207.181 L 35.9879 202.346 L 34.9579 202.346 L 31.8677 207.236 L 31.8677 207.936 Z M 35.1776 207.181 L 32.7879 207.181 L 32.7879 207.126 L 35.1227 203.431 L 35.1776 203.431 L 35.1776 207.181 Z" stroke-linecap="round" />
</g>
<g transform="matrix(3.65 0 0 3.65 220.08 887.4)"  >
<path style="stroke: none; stroke-width: 1; stroke-dasharray: none; stroke-linecap: butt; stroke-dashoffset: 0; stroke-linejoin: miter; stroke-miterlimit: 4; fill: rgb(51,51,51); fill-rule: nonzero; opacity: 1;" vector-effect="non-scaling-stroke"  transform=" translate(-55.53, -205.92)" d="M 55.0988 201.981 C 54.5334 201.413 53.7656 201.093 52.9641 201.091 C 52.1626 201.089 51.3931 201.405 50.8247 201.97 C 50.2596 202.538 49.9434 203.308 49.9454 204.109 C 49.9475 204.911 50.2678 205.679 50.8359 206.244 L 55.2142 210.623 C 55.3014 210.71 55.4197 210.759 55.543 210.759 C 55.6663 210.759 55.7846 210.71 55.8718 210.623 L 60.2277 206.27 C 60.7926 205.702 61.1086 204.932 61.1066 204.131 C 61.1045 203.33 60.7843 202.562 60.2166 201.997 C 59.9364 201.715 59.6034 201.491 59.2366 201.338 C 58.8698 201.185 58.4765 201.105 58.079 201.104 C 57.6816 201.103 57.2878 201.181 56.9203 201.332 C 56.5527 201.483 56.2185 201.705 55.9369 201.986 L 55.5211 202.402 L 55.0988 201.981 Z" stroke-linecap="round" />
</g>
<g transform="matrix(3.65 0 0 3.65 273.72 887.17)"  >
<path style="stroke: none; stroke-width: 1; stroke-dasharray: none; stroke-linecap: butt; stroke-dashoffset: 0; stroke-linejoin: miter; stroke-miterlimit: 4; fill: rgb(51,51,51); fill-rule: nonzero; opacity: 1;" vector-effect="non-scaling-stroke"  transform=" translate(-70.21, -205.86)" d="M 71.5116 202.346 L 70.6601 202.346 L 68.9021 203.514 L 68.9021 204.379 L 70.6189 203.239 L 70.6601 203.239 L 70.6601 209.378 L 71.5116 209.378 L 71.5116 202.346 Z" stroke-linecap="round" />
</g>
<g transform="matrix(3.65 0 0 3.65 294.11 887.17)"  >
<path style="stroke: none; stroke-width: 1; stroke-dasharray: none; stroke-linecap: butt; stroke-dashoffset: 0; stroke-linejoin: miter; stroke-miterlimit: 4; fill: rgb(51,51,51); fill-rule: nonzero; opacity: 1;" vector-effect="non-scaling-stroke"  transform=" translate(-75.79, -205.86)" d="M 75.7863 209.474 C 77.1906 209.474 78.1692 208.654 78.176 207.51 C 78.1692 206.621 77.5752 205.866 76.8164 205.725 L 76.8164 205.684 C 77.4756 205.512 77.9082 204.866 77.9151 204.118 C 77.9082 203.047 77.0086 202.25 75.7863 202.25 C 74.5502 202.25 73.6507 203.047 73.6575 204.118 C 73.6507 204.866 74.0833 205.512 74.7563 205.684 L 74.7563 205.725 C 73.9837 205.866 73.3897 206.621 73.3966 207.51 C 73.3897 208.654 74.3683 209.474 75.7863 209.474 Z M 75.7863 208.719 C 74.8215 208.719 74.2275 208.224 74.2344 207.469 C 74.2275 206.676 74.8833 206.109 75.7863 206.109 C 76.6756 206.109 77.3314 206.676 77.3383 207.469 C 77.3314 208.224 76.7374 208.719 75.7863 208.719 Z M 75.7863 205.382 C 75.0172 205.382 74.4747 204.901 74.4816 204.173 C 74.4747 203.459 74.9966 202.992 75.7863 202.992 C 76.5623 202.992 77.0842 203.459 77.091 204.173 C 77.0842 204.901 76.5417 205.382 75.7863 205.382 Z" stroke-linecap="round" />
</g>
<g transform="matrix(0.46 0 0 0.46 910.01 889.1)" style="" id="bc601d33-46ab-4bd6-a606-8386c63efcf1"  >
		<text xml:space="preserve" font-family="Alegreya" font-size="94" font-style="normal" font-weight="700" style="stroke: none; stroke-width: 1; stroke-dasharray: none; stroke-linecap: butt; stroke-dashoffset: 0; stroke-linejoin: miter; stroke-miterlimit: 4; fill: rgb(51,51,51); fill-rule: nonzero; opacity: 1; white-space: pre;" ><tspan x="-227.06" y="29.53" >HackSprint</tspan></text>
</g>
<g transform="matrix(3.65 0 0 3.65 773.76 899.91)"  >
<path style="stroke: none; stroke-width: 1; stroke-dasharray: none; stroke-linecap: butt; stroke-dashoffset: 0; stroke-linejoin: miter; stroke-miterlimit: 4; fill: rgb(51,51,51); fill-rule: nonzero; opacity: 0.75;" vector-effect="non-scaling-stroke"  transform=" translate(-215.85, -206.62)" d="M 209.48 201.091 L 222.23 201.091 L 222.23 212.141 L 209.48 212.141 L 209.48 201.091 Z" stroke-linecap="round" />
</g>
</svg>