<svg width="872" height="175" fill="none" xmlns="http://www.w3.org/2000/svg"><path fill-rule="evenodd" clip-rule="evenodd" d="M119.614 108.122l21.784 14.018-1.292 1.708c-10.292 13.613-26.66 20.807-45.91 20.807-15.852 0-29.718-4.513-39.659-12.793-9.974-8.309-15.867-20.311-15.867-34.949 0-14.56 5.894-26.561 15.866-34.888 9.938-8.3 23.803-12.854 39.66-12.854 19.262 0 35.619 7.36 45.903 20.797l1.302 1.701-21.78 14.205-1.066-1.75c-3.926-6.45-11.801-10.01-24.359-10.01-9.968 0-16.911 1.59-21.357 5.061-4.326 3.378-6.684 8.869-6.684 17.738 0 8.954 2.36 14.484 6.688 17.88 4.444 3.489 11.385 5.077 21.353 5.077 12.558 0 20.433-3.558 24.359-10.009l1.059-1.739zm-.027-26.05c-4.626-6.629-13.135-9.943-25.39-9.943-20.178 0-30.028 6.355-30.028 24.784 0 18.588 9.85 24.943 30.028 24.943 12.376 0 20.931-3.379 25.525-10.139.183-.269.36-.543.53-.823l18.27 11.757a47.235 47.235 0 01-1.236 1.566c-9.904 12.021-25.108 18.452-43.09 18.452-30.98 0-53.54-17.635-53.54-45.756 0-27.962 22.56-45.756 53.54-45.756 17.976 0 33.177 6.574 43.081 18.46.425.51.84 1.03 1.245 1.558l-18.27 11.916a19.773 19.773 0 00-.665-1.02zm53.133 61.153h-25.897V37.732h25.897v105.493zm-1.986-103.507V141.24h-21.925V39.719h21.925zm18.967 37.47c6.656-8.157 17.245-14.036 32.817-14.036 15.571 0 26.197 5.879 32.892 14.032 6.64 8.084 9.289 18.247 9.289 26.72 0 8.472-2.649 18.635-9.289 26.72-6.695 8.152-17.321 14.031-32.892 14.031-15.572 0-26.161-5.879-32.817-14.036-6.6-8.087-9.206-18.25-9.206-26.715 0-8.466 2.606-18.629 9.206-26.716zm19.172 38.684c2.558 3.654 6.764 6.54 13.645 6.54 6.966 0 11.167-2.891 13.7-6.535 2.607-3.749 3.537-8.442 3.537-11.973 0-3.532-.93-8.225-3.537-11.974-2.533-3.644-6.734-6.535-13.7-6.535-6.881 0-11.087 2.886-13.645 6.54-2.628 3.755-3.593 8.45-3.593 11.969 0 3.518.965 8.213 3.593 11.968zm141.243 25.367h-22.084v-32.41c0-15.411-1.589-23.673-9.85-23.673-8.42 0-16.841 6.514-21.766 13.346v42.737h-21.925v-74.67h21.925v9.373c.64-.566 1.303-1.12 1.986-1.662 6.603-5.227 15.098-9.142 23.593-9.142 17.794 0 28.121 11.28 28.121 43.691v32.41zm-51.714-69.46v-7.197h-25.896v78.643h25.896V99.153c2.293-3.058 5.311-6.012 8.678-8.227 3.562-2.343 7.396-3.784 11.102-3.784 1.718 0 2.912.422 3.808 1.116.919.712 1.712 1.856 2.345 3.625 1.299 3.624 1.711 9.213 1.711 16.946v34.396h26.056v-34.396c0-16.339-2.588-27.763-7.747-35.138-5.269-7.534-12.994-10.539-22.36-10.539-8.53 0-16.925 3.675-23.593 8.626zM440.77 124.25l-1.137 1.72-1.657-1.095-15.41-9.374c0 .005-.008.017-.022.036-.495.657-9.513 9.815-20.632 9.815-11.358 0-17.377-8.275-19.526-15.65a24.538 24.538 0 01-.492-1.985h58.783c0-.636.04-1.271.08-1.907.039-.635.079-1.271.079-1.906 0-16.206-10.168-38.766-40.195-38.766s-40.036 22.56-40.036 38.766c0 16.205 10.009 38.765 40.036 38.765 20.867 0 32.535-11.843 36.126-16.205.81-.985 1.209-1.589 1.209-1.589a159.594 159.594 0 011.656 1.097l-.001.002-.004.005-.011.017-.035.051a21.875 21.875 0 01-.581.798 34.982 34.982 0 01-1.784 2.139 46.021 46.021 0 01-7.15 6.396c-6.411 4.647-16.144 9.275-29.425 9.275-15.572 0-26.161-5.879-32.817-14.036-6.6-8.087-9.205-18.25-9.205-26.715 0-8.466 2.605-18.629 9.205-26.716 6.656-8.157 17.245-14.036 32.817-14.036 15.571 0 26.197 5.879 32.892 14.032 6.64 8.084 9.289 18.247 9.289 26.72 0 .697-.043 1.384-.081 2.001l-.002.029a28.304 28.304 0 00-.076 1.783v1.985h-58.204c2.12 6.702 7.586 13.664 17.453 13.664 5.177 0 9.957-2.205 13.529-4.542a35.602 35.602 0 004.183-3.198c.4-.356.72-.662.956-.895v-2.762l20.19 12.281zm-23.573-34.566c.767 1.168 1.079 1.986 1.079 1.986h-33.681s.194-.818.792-1.986c1.492-2.918 5.496-8.023 15.254-8.023 9.871 0 14.637 5.105 16.556 8.023zm-2.455 0a14.87 14.87 0 00-1.455-1.566c-2.338-2.183-6.271-4.47-12.646-4.47-6.279 0-9.76 2.271-11.686 4.363a11.763 11.763 0 00-1.284 1.673h27.071zm113.022 18.438l21.784 14.018-1.292 1.708c-10.292 13.613-26.66 20.807-45.91 20.807-15.853 0-29.718-4.513-39.659-12.793-9.975-8.309-15.867-20.311-15.867-34.949 0-14.56 5.894-26.561 15.865-34.888 9.939-8.3 23.804-12.854 39.661-12.854 19.262 0 35.618 7.36 45.903 20.797l1.302 1.701-21.781 14.205-1.065-1.75c-3.926-6.45-11.801-10.01-24.359-10.01-9.968 0-16.911 1.59-21.358 5.061-4.326 3.378-6.683 8.869-6.683 17.738 0 8.954 2.36 14.484 6.687 17.88 4.445 3.489 11.385 5.077 21.354 5.077 12.558 0 20.433-3.558 24.359-10.009l1.059-1.739zm-.027-26.05c-4.626-6.629-13.135-9.943-25.391-9.943-20.177 0-30.027 6.355-30.027 24.784 0 18.588 9.85 24.943 30.027 24.943 12.376 0 20.932-3.379 25.526-10.139.183-.269.359-.543.529-.822 0-.001 0 0 0 0l18.271 11.756a47.235 47.235 0 01-1.236 1.566c-9.904 12.021-25.108 18.452-43.09 18.452-30.98 0-53.541-17.635-53.541-45.756 0-27.962 22.561-45.756 53.541-45.756 17.976 0 33.177 6.574 43.081 18.46.425.51.84 1.03 1.245 1.558l-18.271 11.916s.001 0 0 0a19.154 19.154 0 00-.664-1.02zm33.105-4.884c6.656-8.157 17.245-14.036 32.817-14.036 15.571 0 26.197 5.879 32.892 14.032 6.64 8.084 9.289 18.247 9.289 26.72 0 8.472-2.649 18.635-9.289 26.72-6.695 8.152-17.321 14.031-32.892 14.031-15.572 0-26.161-5.879-32.817-14.036-6.6-8.087-9.206-18.25-9.206-26.715 0-8.466 2.606-18.629 9.206-26.716zm19.172 38.684c2.558 3.654 6.764 6.54 13.645 6.54 6.966 0 11.167-2.891 13.7-6.535 2.607-3.749 3.537-8.442 3.537-11.973 0-3.532-.93-8.225-3.537-11.974-2.533-3.644-6.734-6.535-13.7-6.535-6.881 0-11.087 2.886-13.645 6.54-2.628 3.755-3.593 8.45-3.593 11.969 0 3.518.965 8.213 3.593 11.968zm200.185 25.367h-22.084v-32.41c0-15.411-1.588-23.673-10.009-23.673-9.532 0-19.382 5.084-24.784 13.028.318 3.336.477 6.832.477 10.645v32.41h-21.925v-32.41c0-15.411-4.29-23.673-12.551-23.673-8.42 0-16.682 6.514-21.766 13.346v42.737h-21.925v-74.67h21.925v9.373c.64-.566 1.303-1.12 1.986-1.662 6.603-5.227 15.098-9.142 23.593-9.142 10.479 0 20.292 4.667 24.43 11.313.378.609.71 1.234.99 1.874.45-.522.94-1.04 1.466-1.55 6.523-6.331 18.678-11.637 32.056-11.637 17.794 0 28.121 11.28 28.121 43.691v32.41zm-61.2-66.232c7.026-6.59 19.511-11.855 33.079-11.855 9.367 0 17.091 3.005 22.361 10.54 5.158 7.374 7.746 18.798 7.746 35.137v34.396h-26.056v-34.396c0-7.735-.413-13.318-1.727-16.938-.641-1.764-1.444-2.908-2.383-3.623-.918-.7-2.147-1.126-3.913-1.126-8.658 0-17.637 4.525-22.74 11.586.279 3.183.418 6.508.418 10.101v34.396h-25.896v-34.396c0-7.58-1.065-13.117-2.948-16.69-1.811-3.432-4.323-4.997-7.617-4.997-3.703 0-7.495 1.438-11.039 3.782-3.347 2.213-6.371 5.17-8.741 8.245v44.056h-25.896V64.582h25.896v7.196c6.668-4.95 15.063-8.626 23.593-8.626 6.029 0 11.865 1.463 16.664 3.958 3.82 1.985 7.075 4.676 9.199 7.897zm96.965 98.007h-21.925V66.568h21.925v7.626a39.51 39.51 0 011.986-1.471c6.603-4.584 15.098-7.585 23.593-7.585 19.7 0 28.12 19.383 28.12 38.766 0 19.382-13.822 38.765-33.363 38.765-7.119 0-13.379-3.557-18.35-7.976a46.74 46.74 0 01-1.986-1.874v40.195zm1.986-35.709V175h-25.897V64.582h25.897v5.75c6.732-4.365 15.141-7.18 23.593-7.18 10.628 0 18.251 5.282 23.129 13.044 4.826 7.679 6.977 17.771 6.977 27.708 0 20.071-14.343 40.751-35.349 40.751-7.14 0-13.372-3.259-18.35-7.35zm6.268-20.13c2.697 2.546 5.523 4.125 8.269 4.125 3.213 0 5.562-.823 7.313-2.03 1.767-1.217 3.045-2.908 3.966-4.812 1.869-3.863 2.146-8.347 2.146-10.554 0-2.885-.241-7.508-1.526-11.345-1.299-3.878-3.357-6.211-6.656-6.211-7.556 0-15.03 3.758-19.78 9.807v13.071c1.594 2.593 3.761 5.582 6.268 7.949zm-8.254-7.393c3.336 5.561 9.532 13.504 16.523 13.504 14.298 0 15.411-14.775 15.411-19.382 0-5.879-.954-19.542-10.168-19.542-8.421 0-16.682 4.29-21.766 11.121v14.299zm-633.483-5.878c0-16.206 10.009-38.766 40.037-38.766 30.027 0 40.195 22.56 40.195 38.766 0 16.205-10.168 38.765-40.195 38.765-30.028 0-40.037-22.56-40.037-38.765zm20.813 0c0 7.626 4.131 20.494 19.224 20.494 15.252 0 19.223-12.868 19.223-20.494 0-7.626-3.971-20.495-19.223-20.495-15.093 0-19.224 12.869-19.224 20.495zm350.328 0c0-16.206 10.009-38.766 40.037-38.766 30.027 0 40.195 22.56 40.195 38.766 0 16.205-10.168 38.765-40.195 38.765-30.028 0-40.037-22.56-40.037-38.765zm20.813 0c0 7.626 4.131 20.494 19.224 20.494 15.252 0 19.223-12.868 19.223-20.494 0-7.626-3.971-20.495-19.223-20.495-15.093 0-19.224 12.869-19.224 20.495z" fill="#fff" fill-opacity=".25"/></svg>