<svg width="872" height="175" fill="none" xmlns="http://www.w3.org/2000/svg"><path fill-rule="evenodd" clip-rule="evenodd" d="M107.699 96.206l21.784 14.018-1.292 1.708c-10.293 13.613-26.661 20.807-45.91 20.807-15.853 0-29.719-4.513-39.66-12.793-9.974-8.309-15.867-20.311-15.867-34.949 0-14.56 5.895-26.561 15.866-34.888 9.939-8.3 23.804-12.854 39.66-12.854 19.263 0 35.619 7.36 45.904 20.797l1.302 1.701-21.781 14.205-1.065-1.75c-3.926-6.45-11.802-10.01-24.36-10.01-9.967 0-16.91 1.59-21.357 5.061-4.326 3.378-6.683 8.869-6.683 17.738 0 8.954 2.36 14.484 6.687 17.88 4.445 3.489 11.385 5.077 21.354 5.077 12.557 0 20.433-3.558 24.359-10.009l1.059-1.739zm-.028-26.05c-4.625-6.63-13.134-9.943-25.39-9.943-20.177 0-30.027 6.355-30.027 24.784 0 18.588 9.85 24.943 30.027 24.943 12.376 0 20.932-3.379 25.525-10.139.183-.269.36-.543.53-.823l18.271 11.757a48.592 48.592 0 01-1.236 1.566c-9.904 12.021-25.109 18.452-43.09 18.452-30.98 0-53.54-17.635-53.54-45.756 0-27.962 22.56-45.756 53.54-45.756 17.976 0 33.177 6.574 43.081 18.46.425.51.84 1.03 1.245 1.558l-18.271 11.916a19.175 19.175 0 00-.665-1.02zm53.133 61.153h-25.896V25.816h25.896V131.31zm-1.986-103.507v101.521h-21.924V27.803h21.924zm18.967 37.47c6.657-8.157 17.245-14.036 32.817-14.036 15.571 0 26.197 5.879 32.893 14.032 6.639 8.084 9.288 18.247 9.288 26.72 0 8.472-2.649 18.635-9.288 26.72-6.696 8.152-17.322 14.031-32.893 14.031-15.572 0-26.16-5.879-32.817-14.036-6.6-8.087-9.205-18.25-9.205-26.716 0-8.465 2.605-18.627 9.205-26.715zm19.172 38.684c2.558 3.654 6.764 6.54 13.645 6.54 6.967 0 11.167-2.891 13.701-6.535 2.606-3.749 3.537-8.442 3.537-11.974 0-3.531-.931-8.224-3.537-11.973-2.534-3.644-6.734-6.535-13.701-6.535-6.881 0-11.087 2.886-13.645 6.54-2.628 3.755-3.593 8.45-3.593 11.968 0 3.52.965 8.214 3.593 11.969zM338.2 129.323h-22.083v-32.41c0-15.411-1.589-23.673-9.851-23.673-8.42 0-16.84 6.514-21.765 13.346v42.737h-21.925v-74.67h21.925v9.373c.64-.566 1.303-1.12 1.985-1.662 6.603-5.227 15.098-9.142 23.593-9.142 17.794 0 28.121 11.28 28.121 43.69v32.411zm-51.714-69.46v-7.197H260.59v78.643h25.896V87.237c2.294-3.058 5.312-6.012 8.678-8.227 3.563-2.343 7.397-3.784 11.102-3.784 1.718 0 2.913.422 3.809 1.116.919.712 1.711 1.856 2.345 3.625 1.298 3.624 1.711 9.213 1.711 16.946v34.396h26.055V96.913c0-16.339-2.588-27.763-7.746-35.138-5.27-7.534-12.994-10.539-22.361-10.539-8.53 0-16.925 3.675-23.593 8.626zm142.368 52.471l-1.136 1.72-1.657-1.095-15.411-9.374c0 .005-.007.017-.021.036-.495.657-9.513 9.815-20.633 9.815-11.357 0-17.377-8.275-19.526-15.65a24.975 24.975 0 01-.492-1.986h58.784c0-.635.039-1.27.079-1.906.04-.636.08-1.271.08-1.907 0-16.205-10.168-38.765-40.196-38.765-30.027 0-40.036 22.56-40.036 38.765 0 16.206 10.009 38.766 40.036 38.766 20.868 0 32.536-11.843 36.126-16.205.811-.985 1.21-1.589 1.21-1.589 1.657 1.095 1.656 1.096 1.656 1.097l-.002.002-.004.005-.011.017-.034.051c-.03.043-.07.102-.123.176-.105.149-.258.359-.459.622a34.614 34.614 0 01-1.784 2.139 46.054 46.054 0 01-7.149 6.396c-6.411 4.647-16.144 9.275-29.426 9.275-15.571 0-26.16-5.879-32.817-14.036-6.599-8.087-9.205-18.25-9.205-26.716 0-8.465 2.606-18.627 9.205-26.715 6.657-8.157 17.246-14.036 32.817-14.036 15.571 0 26.197 5.879 32.893 14.032 6.639 8.084 9.288 18.247 9.288 26.72 0 .697-.042 1.384-.081 2.001l-.002.029c-.04.646-.075 1.22-.075 1.782v1.987h-58.205c2.12 6.701 7.586 13.663 17.453 13.663 5.177 0 9.957-2.205 13.53-4.542a35.773 35.773 0 004.183-3.198c.399-.356.72-.662.955-.895v-2.762l20.19 12.281zm-23.573-34.566c.768 1.168 1.079 1.986 1.079 1.986h-33.681s.195-.818.792-1.986c1.492-2.918 5.497-8.023 15.254-8.023 9.871 0 14.638 5.105 16.556 8.023zm-2.454 0c-.402-.5-.884-1.033-1.456-1.567-2.338-2.182-6.27-4.47-12.646-4.47-6.279 0-9.76 2.272-11.685 4.364a11.757 11.757 0 00-1.284 1.673h27.071zm113.021 18.438l21.784 14.018-1.291 1.708c-10.293 13.613-26.661 20.807-45.91 20.807-15.853 0-29.719-4.513-39.659-12.793-9.975-8.309-15.868-20.311-15.868-34.949 0-14.56 5.894-26.561 15.866-34.888 9.938-8.3 23.803-12.854 39.661-12.854 19.261 0 35.618 7.36 45.902 20.797l1.302 1.701-21.78 14.205-1.065-1.75c-3.927-6.45-11.802-10.01-24.359-10.01-9.969 0-16.912 1.59-21.358 5.061-4.326 3.378-6.684 8.869-6.684 17.738 0 8.954 2.361 14.484 6.688 17.88 4.444 3.489 11.385 5.077 21.354 5.077 12.557 0 20.432-3.558 24.359-10.009l1.058-1.739zm-.027-26.05c-4.625-6.629-13.135-9.943-25.39-9.943-20.177 0-30.028 6.355-30.028 24.784 0 18.588 9.851 24.943 30.028 24.943 12.376 0 20.932-3.379 25.525-10.14.183-.268.359-.542.53-.821 0 0-.001 0 0 0l18.27 11.756a47.235 47.235 0 01-1.236 1.566c-9.904 12.021-25.108 18.452-43.089 18.452-30.981 0-53.541-17.635-53.541-45.756 0-27.962 22.56-45.756 53.541-45.756 17.976 0 33.176 6.574 43.08 18.46.425.51.84 1.03 1.245 1.558l-18.27 11.916a19.813 19.813 0 00-.665-1.02zm33.105-4.884c6.657-8.157 17.245-14.036 32.817-14.036 15.571 0 26.197 5.879 32.893 14.032 6.639 8.084 9.288 18.247 9.288 26.72 0 8.472-2.649 18.635-9.288 26.72-6.696 8.152-17.322 14.031-32.893 14.031-15.572 0-26.16-5.879-32.817-14.036-6.6-8.087-9.205-18.25-9.205-26.716 0-8.465 2.605-18.627 9.205-26.715zm19.172 38.684c2.558 3.654 6.764 6.54 13.645 6.54 6.967 0 11.167-2.891 13.701-6.535 2.606-3.749 3.537-8.442 3.537-11.974 0-3.531-.931-8.224-3.537-11.973-2.534-3.644-6.734-6.535-13.701-6.535-6.881 0-11.087 2.886-13.645 6.54-2.628 3.755-3.593 8.45-3.593 11.968 0 3.52.965 8.214 3.593 11.969zm200.185 25.367H746.2v-32.41c0-15.411-1.589-23.673-10.009-23.673-9.533 0-19.383 5.084-24.785 13.028.318 3.336.477 6.832.477 10.645v32.41h-21.925v-32.41c0-15.411-4.289-23.673-12.551-23.673-8.42 0-16.681 6.514-21.765 13.346v42.737h-21.925v-74.67h21.925v9.373c.64-.566 1.303-1.12 1.985-1.662 6.603-5.227 15.098-9.142 23.593-9.142 10.48 0 20.292 4.667 24.43 11.313.379.609.71 1.234.99 1.874.451-.522.94-1.04 1.466-1.55 6.524-6.331 18.678-11.637 32.057-11.637 17.794 0 28.12 11.28 28.12 43.69v32.411zm-61.2-66.232c7.027-6.59 19.511-11.855 33.08-11.855 9.366 0 17.091 3.005 22.36 10.54 5.158 7.374 7.746 18.798 7.746 35.137v34.396h-26.055V96.913c0-7.735-.413-13.318-1.728-16.938-.64-1.764-1.444-2.908-2.382-3.623-.918-.7-2.147-1.126-3.913-1.126-8.658 0-17.637 4.525-22.741 11.586.28 3.183.419 6.508.419 10.1v34.397h-25.897V96.913c0-7.58-1.064-13.117-2.948-16.69-1.81-3.432-4.322-4.997-7.617-4.997-3.702 0-7.495 1.438-11.038 3.782-3.348 2.214-6.371 5.17-8.742 8.245v44.056h-25.896V52.666h25.896v7.196c6.668-4.95 15.063-8.626 23.593-8.626 6.03 0 11.866 1.463 16.665 3.958 3.82 1.985 7.074 4.676 9.198 7.897zm96.965 98.007h-21.924V54.652h21.924v7.626a39.973 39.973 0 011.986-1.471c6.603-4.584 15.098-7.585 23.593-7.585 19.7 0 28.121 19.383 28.121 38.765 0 19.383-13.822 38.766-33.364 38.766-7.119 0-13.379-3.557-18.35-7.976a47.35 47.35 0 01-1.986-1.874v40.195zm1.986-35.709v37.695h-25.896V52.666h25.896v5.75c6.733-4.365 15.141-7.18 23.593-7.18 10.628 0 18.252 5.282 23.13 13.044 4.825 7.679 6.977 17.771 6.977 27.707 0 20.072-14.344 40.752-35.35 40.752-7.139 0-13.372-3.259-18.35-7.35zm6.269-20.13c2.696 2.546 5.522 4.125 8.268 4.125 3.214 0 5.563-.823 7.314-2.03 1.767-1.217 3.045-2.908 3.966-4.812 1.868-3.863 2.145-8.347 2.145-10.555 0-2.883-.24-7.507-1.526-11.344-1.298-3.878-3.357-6.211-6.656-6.211-7.555 0-15.029 3.758-19.78 9.807V97.31c1.595 2.593 3.761 5.582 6.269 7.949zm-8.255-7.393c3.337 5.56 9.533 13.504 16.523 13.504 14.299 0 15.411-14.775 15.411-19.383 0-5.878-.953-19.541-10.168-19.541-8.42 0-16.682 4.29-21.766 11.121v14.299zm-633.482-5.879c0-16.205 10.009-38.765 40.036-38.765s40.195 22.56 40.195 38.765c0 16.206-10.168 38.766-40.195 38.766s-40.036-22.56-40.036-38.765zm20.812 0c0 7.627 4.131 20.495 19.224 20.495 15.252 0 19.224-12.868 19.224-20.495 0-7.625-3.972-20.494-19.224-20.494-15.093 0-19.224 12.869-19.224 20.495zm350.329 0c0-16.205 10.009-38.765 40.036-38.765s40.195 22.56 40.195 38.765c0 16.206-10.168 38.766-40.195 38.766s-40.036-22.56-40.036-38.765zm20.812 0c0 7.627 4.131 20.495 19.224 20.495 15.252 0 19.224-12.868 19.224-20.495 0-7.625-3.972-20.494-19.224-20.494-15.093 0-19.224 12.869-19.224 20.495z" fill="#fff" fill-opacity=".25"/></svg>