<svg width="12" height="12" viewBox="0 0 12 12" fill="none" xmlns="http://www.w3.org/2000/svg">
<path d="M5.37219 0.306641H6.30969C6.39303 0.306641 6.43469 0.348307 6.43469 0.431641V11.4316C6.43469 11.515 6.39303 11.5566 6.30969 11.5566H5.37219C5.28886 11.5566 5.24719 11.515 5.24719 11.4316V0.431641C5.24719 0.348307 5.28886 0.306641 5.37219 0.306641Z" fill="black"/>
<path d="M0.590942 5.33789H11.0909C11.1743 5.33789 11.2159 5.37956 11.2159 5.46289V6.40039C11.2159 6.48372 11.1743 6.52539 11.0909 6.52539H0.590942C0.507609 6.52539 0.465942 6.48372 0.465942 6.40039V5.46289C0.465942 5.37956 0.507609 5.33789 0.590942 5.33789Z" fill="black"/>
</svg>
