<svg width="53" height="24" viewBox="0 0 53 24" fill="none" xmlns="http://www.w3.org/2000/svg">
<path fill-rule="evenodd" clip-rule="evenodd" d="M0 12C0 11.6464 0.140456 11.3073 0.39047 11.0573C0.640483 10.8073 0.979574 10.6669 1.33315 10.6669H47.7767L39.3859 2.2787C39.1356 2.02837 38.995 1.68885 38.995 1.33483C38.995 0.980811 39.1356 0.641292 39.3859 0.390962C39.6362 0.140633 39.9758 8.34097e-09 40.3298 0C40.6838 -8.34097e-09 41.0233 0.140633 41.2737 0.390962L51.9388 11.0561C52.063 11.18 52.1615 11.3271 52.2287 11.489C52.2959 11.651 52.3305 11.8246 52.3305 12C52.3305 12.1754 52.2959 12.349 52.2287 12.511C52.1615 12.6729 52.063 12.82 51.9388 12.9439L41.2737 23.609C41.0233 23.8594 40.6838 24 40.3298 24C39.9758 24 39.6362 23.8594 39.3859 23.609C39.1356 23.3587 38.995 23.0192 38.995 22.6652C38.995 22.3112 39.1356 21.9716 39.3859 21.7213L47.7767 13.3331H1.33315C0.979574 13.3331 0.640483 13.1927 0.39047 12.9427C0.140456 12.6927 0 12.3536 0 12Z" fill="url(#paint0_linear)"/>
<defs>
<linearGradient id="paint0_linear" x1="26.1652" y1="0" x2="26.1652" y2="24" gradientUnits="userSpaceOnUse">
<stop stop-color="#3997EE"/>
<stop offset="1" stop-color="#EC653B"/>
</linearGradient>
</defs>
</svg>
