<svg width="1440" height="13" viewBox="0 0 1440 13" fill="none" xmlns="http://www.w3.org/2000/svg">
<path d="M712.869 6.40936C708.551 13.602 701.545 13.602 697.225 6.40936C692.905 -0.783298 685.9 -0.783298 681.58 6.40936C677.26 13.602 670.256 13.602 665.936 6.40936C661.616 -0.783298 654.612 -0.783298 650.292 6.40936C645.974 13.602 638.967 13.602 634.647 6.40936C630.329 -0.783298 623.323 -0.783298 619.003 6.40936C614.682 13.602 607.679 13.602 603.359 6.40936C599.039 -0.783298 592.034 -0.783298 587.714 6.40936C583.394 13.602 576.39 13.602 572.07 6.40936C567.75 -0.783298 560.746 -0.783298 556.426 6.40936C552.106 13.602 545.101 13.602 540.781 6.40936C536.461 -0.783298 529.457 -0.783298 525.137 6.40936C520.817 13.602 513.812 13.602 509.493 6.40936C505.173 -0.783298 498.168 -0.783298 493.848 6.40936C489.528 13.602 482.524 13.602 478.204 6.40936C473.884 -0.783298 466.879 -0.783298 462.559 6.40936C458.239 13.602 451.235 13.602 446.915 6.40936C442.595 -0.783298 435.591 -0.783298 431.271 6.40936C426.951 13.602 419.946 13.602 415.626 6.40936C411.306 -0.783298 404.302 -0.783298 399.982 6.40936C395.663 13.602 388.658 13.602 384.338 6.40936C380.02 -0.783298 373.014 -0.783298 368.693 6.40936C364.373 13.602 357.369 13.602 353.049 6.40936C348.728 -0.783298 341.724 -0.783298 337.405 6.40936C333.085 13.602 326.08 13.602 321.76 6.40936C317.44 -0.783298 310.436 -0.783298 306.116 6.40936C301.796 13.602 294.791 13.602 290.472 6.40936C286.154 -0.783298 279.148 -0.783298 274.828 6.40936C270.508 13.602 263.503 13.602 259.183 6.40936C254.863 -0.783298 247.859 -0.783298 243.539 6.40936C239.219 13.602 232.214 13.602 227.895 6.40936C223.575 -0.783298 216.57 -0.783298 212.25 6.40936C207.93 13.602 200.926 13.602 196.606 6.40936C192.286 -0.783298 185.282 -0.783298 180.961 6.40936C176.641 13.602 169.637 13.602 165.317 6.40936C160.997 -0.783298 153.993 -0.783298 149.673 6.40936C145.352 13.602 138.348 13.602 134.028 6.40936C129.708 -0.783298 122.704 -0.783298 118.383 6.40936C114.063 13.602 107.059 13.602 102.739 6.40936C98.4194 -0.783298 91.415 -0.783298 87.095 6.40936C82.7749 13.602 75.7705 13.602 71.4505 6.40936C67.1304 -0.783298 60.1264 -0.783298 55.8064 6.40936C51.4864 13.602 44.4819 13.602 40.1619 6.40936C35.8439 -0.783298 28.8374 -0.783298 24.5174 6.40936C20.1994 13.602 13.1934 13.602 8.87292 6.40936C6.7003 2.7905 3.84798 0.990881 1 1.01534V1.00047C3.84798 0.978411 6.7003 2.77467 8.87292 6.3945C13.191 13.5872 20.1974 13.5872 24.5174 6.3945C28.8355 -0.798165 35.8419 -0.798165 40.1619 6.3945C44.48 13.5872 51.4864 13.5872 55.8064 6.3945C60.1264 -0.798165 67.1309 -0.798165 71.4505 6.3945C75.77 13.5872 82.7749 13.5872 87.095 6.3945C91.415 -0.798165 98.4194 -0.798165 102.739 6.3945C107.059 13.5872 114.064 13.5872 118.383 6.3945C122.703 -0.798165 129.708 -0.798165 134.028 6.3945C138.348 13.5872 145.352 13.5872 149.673 6.3945C153.993 -0.798165 160.997 -0.798165 165.317 6.3945C169.637 13.5872 176.641 13.5872 180.961 6.3945C185.281 -0.798165 192.286 -0.798165 196.606 6.3945C200.926 13.5872 207.93 13.5872 212.25 6.3945C216.57 -0.798165 223.574 -0.798165 227.895 6.3945C232.215 13.5872 239.219 13.5872 243.539 6.3945C247.858 -0.798165 254.863 -0.798165 259.183 6.3945C263.503 13.5872 270.508 13.5872 274.828 6.3945C279.148 -0.798165 286.152 -0.798165 290.472 6.3945C294.79 13.5872 301.796 13.5872 306.116 6.3945C310.436 -0.798165 317.44 -0.798165 321.76 6.3945C326.08 13.5872 333.085 13.5872 337.405 6.3945C341.725 -0.798165 348.729 -0.798165 353.049 6.3945C357.369 13.5872 364.373 13.5872 368.693 6.3945C373.013 -0.798165 380.018 -0.798165 384.338 6.3945C388.656 13.5872 395.662 13.5872 399.982 6.3945C404.303 -0.798165 411.306 -0.798165 415.626 6.3945C419.946 13.5872 426.951 13.5872 431.271 6.3945C435.591 -0.798165 442.595 -0.798165 446.915 6.3945C451.235 13.5872 458.239 13.5872 462.559 6.3945C466.879 -0.798165 473.883 -0.798165 478.204 6.3945C482.524 13.5872 489.528 13.5872 493.848 6.3945C498.168 -0.798165 505.173 -0.798165 509.493 6.3945C513.813 13.5872 520.817 13.5872 525.137 6.3945C529.457 -0.798165 536.461 -0.798165 540.781 6.3945C545.101 13.5872 552.106 13.5872 556.426 6.3945C560.746 -0.798165 567.75 -0.798165 572.07 6.3945C576.39 13.5872 583.394 13.5872 587.714 6.3945C592.034 -0.798165 599.039 -0.798165 603.359 6.3945C607.679 13.5872 614.683 13.5872 619.003 6.3945C623.322 -0.798165 630.327 -0.798165 634.647 6.3945C638.965 13.5872 645.972 13.5872 650.292 6.3945C654.61 -0.798165 661.616 -0.798165 665.936 6.3945C670.256 13.5872 677.261 13.5872 681.58 6.3945C685.9 -0.798165 692.905 -0.798165 697.225 6.3945C701.545 13.5872 708.549 13.5872 712.869 6.3945C715.107 2.6663 718.067 0.877246 721 1.01247V1.0254C718.067 0.889223 715.108 2.68117 712.869 6.40936Z" fill="#333333" stroke="#333333" stroke-width="2" stroke-miterlimit="10"/>
<path d="M1432.87 6.40936C1428.55 13.602 1421.54 13.602 1417.22 6.40936C1412.9 -0.783298 1405.9 -0.783298 1401.58 6.40936C1397.26 13.602 1390.26 13.602 1385.94 6.40936C1381.62 -0.783298 1374.61 -0.783298 1370.29 6.40936C1365.97 13.602 1358.97 13.602 1354.65 6.40936C1350.33 -0.783298 1343.32 -0.783298 1339 6.40936C1334.68 13.602 1327.68 13.602 1323.36 6.40936C1319.04 -0.783298 1312.03 -0.783298 1307.71 6.40936C1303.39 13.602 1296.39 13.602 1292.07 6.40936C1287.75 -0.783298 1280.75 -0.783298 1276.43 6.40936C1272.11 13.602 1265.1 13.602 1260.78 6.40936C1256.46 -0.783298 1249.46 -0.783298 1245.14 6.40936C1240.82 13.602 1233.81 13.602 1229.49 6.40936C1225.17 -0.783298 1218.17 -0.783298 1213.85 6.40936C1209.53 13.602 1202.52 13.602 1198.2 6.40936C1193.88 -0.783298 1186.88 -0.783298 1182.56 6.40936C1178.24 13.602 1171.24 13.602 1166.92 6.40936C1162.6 -0.783298 1155.59 -0.783298 1151.27 6.40936C1146.95 13.602 1139.95 13.602 1135.63 6.40936C1131.31 -0.783298 1124.3 -0.783298 1119.98 6.40936C1115.66 13.602 1108.66 13.602 1104.34 6.40936C1100.02 -0.783298 1093.01 -0.783298 1088.69 6.40936C1084.37 13.602 1077.37 13.602 1073.05 6.40936C1068.73 -0.783298 1061.72 -0.783298 1057.4 6.40936C1053.09 13.602 1046.08 13.602 1041.76 6.40936C1037.44 -0.783298 1030.44 -0.783298 1026.12 6.40936C1021.8 13.602 1014.79 13.602 1010.47 6.40936C1006.15 -0.783298 999.148 -0.783298 994.828 6.40936C990.508 13.602 983.503 13.602 979.183 6.40936C974.863 -0.783298 967.859 -0.783298 963.539 6.40936C959.219 13.602 952.214 13.602 947.895 6.40936C943.575 -0.783298 936.57 -0.783298 932.25 6.40936C927.93 13.602 920.926 13.602 916.606 6.40936C912.286 -0.783298 905.282 -0.783298 900.961 6.40936C896.641 13.602 889.637 13.602 885.317 6.40936C880.997 -0.783298 873.993 -0.783298 869.673 6.40936C865.352 13.602 858.348 13.602 854.028 6.40936C849.708 -0.783298 842.704 -0.783298 838.383 6.40936C834.063 13.602 827.059 13.602 822.739 6.40936C818.419 -0.783298 811.415 -0.783298 807.095 6.40936C802.775 13.602 795.77 13.602 791.45 6.40936C787.13 -0.783298 780.126 -0.783298 775.806 6.40936C771.486 13.602 764.482 13.602 760.162 6.40936C755.844 -0.783298 748.837 -0.783298 744.517 6.40936C740.199 13.602 733.193 13.602 728.873 6.40936C726.7 2.7905 723.848 0.990881 721 1.01534V1.00047C723.848 0.978411 726.7 2.77467 728.873 6.3945C733.191 13.5872 740.197 13.5872 744.517 6.3945C748.835 -0.798165 755.842 -0.798165 760.162 6.3945C764.48 13.5872 771.486 13.5872 775.806 6.3945C780.126 -0.798165 787.131 -0.798165 791.45 6.3945C795.77 13.5872 802.775 13.5872 807.095 6.3945C811.415 -0.798165 818.419 -0.798165 822.739 6.3945C827.059 13.5872 834.064 13.5872 838.383 6.3945C842.703 -0.798165 849.708 -0.798165 854.028 6.3945C858.348 13.5872 865.352 13.5872 869.673 6.3945C873.993 -0.798165 880.997 -0.798165 885.317 6.3945C889.637 13.5872 896.641 13.5872 900.961 6.3945C905.281 -0.798165 912.286 -0.798165 916.606 6.3945C920.926 13.5872 927.93 13.5872 932.25 6.3945C936.57 -0.798165 943.574 -0.798165 947.895 6.3945C952.215 13.5872 959.219 13.5872 963.539 6.3945C967.858 -0.798165 974.863 -0.798165 979.183 6.3945C983.503 13.5872 990.508 13.5872 994.828 6.3945C999.148 -0.798165 1006.15 -0.798165 1010.47 6.3945C1014.79 13.5872 1021.8 13.5872 1026.12 6.3945C1030.44 -0.798165 1037.44 -0.798165 1041.76 6.3945C1046.08 13.5872 1053.08 13.5872 1057.4 6.3945C1061.72 -0.798165 1068.73 -0.798165 1073.05 6.3945C1077.37 13.5872 1084.37 13.5872 1088.69 6.3945C1093.01 -0.798165 1100.02 -0.798165 1104.34 6.3945C1108.66 13.5872 1115.66 13.5872 1119.98 6.3945C1124.3 -0.798165 1131.31 -0.798165 1135.63 6.3945C1139.95 13.5872 1146.95 13.5872 1151.27 6.3945C1155.59 -0.798165 1162.6 -0.798165 1166.92 6.3945C1171.24 13.5872 1178.24 13.5872 1182.56 6.3945C1186.88 -0.798165 1193.88 -0.798165 1198.2 6.3945C1202.52 13.5872 1209.53 13.5872 1213.85 6.3945C1218.17 -0.798165 1225.17 -0.798165 1229.49 6.3945C1233.81 13.5872 1240.82 13.5872 1245.14 6.3945C1249.46 -0.798165 1256.46 -0.798165 1260.78 6.3945C1265.1 13.5872 1272.11 13.5872 1276.43 6.3945C1280.75 -0.798165 1287.75 -0.798165 1292.07 6.3945C1296.39 13.5872 1303.39 13.5872 1307.71 6.3945C1312.03 -0.798165 1319.04 -0.798165 1323.36 6.3945C1327.68 13.5872 1334.68 13.5872 1339 6.3945C1343.32 -0.798165 1350.33 -0.798165 1354.65 6.3945C1358.97 13.5872 1365.97 13.5872 1370.29 6.3945C1374.61 -0.798165 1381.62 -0.798165 1385.94 6.3945C1390.26 13.5872 1397.26 13.5872 1401.58 6.3945C1405.9 -0.798165 1412.9 -0.798165 1417.22 6.3945C1421.54 13.5872 1428.55 13.5872 1432.87 6.3945C1435.11 2.6663 1438.07 0.877246 1441 1.01247V1.0254C1438.07 0.889223 1435.11 2.68117 1432.87 6.40936Z" fill="#333333" stroke="#333333" stroke-width="2" stroke-miterlimit="10"/>
</svg>
