<svg width="15" height="12" viewBox="0 0 15 12" fill="none" xmlns="http://www.w3.org/2000/svg">
<path d="M14.7613 1.42342C14.2185 1.66396 13.6353 1.82649 13.0223 1.89995C13.6548 1.52145 14.1281 0.925741 14.3537 0.223974C13.7594 0.576974 13.109 0.825448 12.4307 0.958593C11.9746 0.471576 11.3704 0.148773 10.712 0.0403016C10.0536 -0.06817 9.37784 0.0437586 8.78959 0.35871C8.20134 0.673661 7.73352 1.17401 7.45877 1.78209C7.18402 2.39016 7.11771 3.07193 7.27014 3.72154C6.06594 3.66108 4.88791 3.34809 3.8125 2.80288C2.73709 2.25767 1.78834 1.49244 1.02782 0.556828C0.767775 1.0054 0.618251 1.52549 0.618251 2.07938C0.617961 2.578 0.740752 3.069 0.97573 3.50879C1.21071 3.94858 1.55061 4.32357 1.96527 4.60049C1.48437 4.58519 1.01408 4.45524 0.593547 4.22148V4.26048C0.593498 4.95983 0.835408 5.63765 1.27823 6.17894C1.72105 6.72023 2.3375 7.09165 3.02299 7.23017C2.57688 7.3509 2.10916 7.36869 1.65517 7.28218C1.84858 7.88392 2.22531 8.41013 2.73264 8.78712C3.23996 9.16412 3.85248 9.37303 4.48443 9.38462C3.41165 10.2268 2.08677 10.6836 0.722918 10.6816C0.481326 10.6816 0.239939 10.6675 0 10.6393C1.38439 11.5294 2.99591 12.0018 4.64176 12C10.2132 12 13.2589 7.38554 13.2589 3.38349C13.2589 3.25347 13.2557 3.12215 13.2498 2.99213C13.8423 2.56369 14.3536 2.03315 14.76 1.42537L14.7613 1.42342Z" fill="white"/>
</svg>
