<svg width="180" height="180" viewBox="0 0 180 180" fill="none" xmlns="http://www.w3.org/2000/svg">
<path d="M73.8827 2.75895L104.529 23.2324C105.139 23.6397 105.303 24.4639 104.896 25.0735L84.4221 55.7201C84.0149 56.3296 83.1906 56.4937 82.581 56.0864L51.9345 35.613C51.3249 35.2057 51.1609 34.3814 51.5681 33.7719L72.0416 3.12534C72.4488 2.51576 73.2731 2.35172 73.8827 2.75895ZM74.3812 2.01272C73.3595 1.33016 71.9779 1.6051 71.2954 2.62682L50.8219 33.2733C50.1393 34.2951 50.4143 35.6766 51.436 36.3592L82.0825 56.8327C83.1042 57.5152 84.4858 57.2403 85.1684 56.2186L105.642 25.572C106.324 24.5503 106.049 23.1688 105.028 22.4862L74.3812 2.01272Z" fill="#333333" stroke="black" stroke-width="0.1"/>
<path d="M82.9453 25.7342L81.038 24.4601C80.136 25.8103 78.5035 25.623 77.3558 24.8563L76.1944 26.5947C77.7979 27.6659 79.1663 27.2619 79.1663 27.2619L75.8061 32.2916L73.3925 30.6792L72.3213 32.2827L79.0558 36.7817L80.127 35.1782L77.7134 33.5658L82.9453 25.7342Z" fill="#333333"/>
<path d="M49.487 39.2765L80.1336 59.75C80.7431 60.1572 80.9072 60.9815 80.5 61.5911L60.0265 92.2376C59.6192 92.8472 58.795 93.0113 58.1854 92.604L27.5388 72.1305C26.9293 71.7233 26.7652 70.899 27.1725 70.2894L47.6459 39.6429C48.0532 39.0333 48.8775 38.8693 49.487 39.2765ZM49.9856 38.5303C48.9638 37.8477 47.5823 38.1227 46.8997 39.1444L26.4262 69.7909C25.7437 70.8126 26.0186 72.1942 27.0403 72.8768L57.6869 93.3502C58.7086 94.0328 60.0901 93.7579 60.7727 92.7362L81.2462 62.0896C81.9287 61.0679 81.6538 59.6863 80.6321 59.0038L49.9856 38.5303Z" fill="#333333" stroke="black" stroke-width="0.1"/>
<path d="M53.9397 67.3742C57.0116 69.4264 58.5154 68.7467 59.7106 66.9575C60.9171 65.1516 60.5022 63.3609 58.2405 61.85C55.9788 60.339 53.4684 59.8581 53.4684 59.8581L52.3575 61.85C52.3575 61.85 54.9639 61.9313 56.6855 63.0814C58.4071 64.2315 58.4009 64.862 57.792 65.7735C57.1719 66.7018 56.5975 66.8307 54.6734 65.5453C52.8336 64.3162 49.4951 64.3806 48.0406 66.5579L46.9694 68.1614L55.0373 73.5511L56.1084 71.9477L49.9816 67.8546C50.7822 66.6562 52.3869 66.3369 53.9397 67.3742Z" fill="#333333"/>
<path d="M86.0045 63.672L116.651 84.1455C117.261 84.5527 117.425 85.377 117.017 85.9866L96.544 116.633C96.1367 117.243 95.3124 117.407 94.7029 117L64.0563 96.5261C63.4468 96.1188 63.2827 95.2945 63.6899 94.685L84.1634 64.0384C84.5707 63.4288 85.3949 63.2648 86.0045 63.672ZM86.503 62.9258C85.4813 62.2432 84.0997 62.5182 83.4172 63.5399L62.9437 94.1864C62.2612 95.2081 62.5361 96.5897 63.5578 97.2723L94.2043 117.746C95.2261 118.428 96.6076 118.153 97.2902 117.132L117.764 86.4851C118.446 85.4634 118.171 84.0818 117.15 83.3993L86.503 62.9258Z" fill="#333333" stroke="black" stroke-width="0.1"/>
<path d="M25.0915 75.7939L55.738 96.2673C56.3476 96.6746 56.5116 97.4989 56.1044 98.1084L35.6309 128.755C35.2237 129.365 34.3994 129.529 33.7898 129.121L3.14328 108.648C2.5337 108.241 2.36966 107.416 2.77689 106.807L23.2504 76.1602C23.6576 75.5507 24.4819 75.3866 25.0915 75.7939ZM25.59 75.0476C24.5683 74.3651 23.1867 74.64 22.5041 75.6617L2.03066 106.308C1.3481 107.33 1.62304 108.712 2.64476 109.394L33.2913 129.868C34.313 130.55 35.6946 130.275 36.3771 129.253L56.8506 98.607C57.5332 97.5852 57.2582 96.2037 56.2365 95.5211L25.59 75.0476Z" fill="#333333" stroke="black" stroke-width="0.1"/>
<path d="M35.3566 103.381C36.5518 101.592 36.075 99.8571 33.8301 98.3575C32.0073 97.1397 29.1537 96.4051 29.1537 96.4051L28.1161 98.2507C28.1161 98.2507 30.7899 98.5966 32.2751 99.5889C33.9967 100.739 34.0356 101.302 33.4267 102.213C32.8178 103.125 32.2886 103.186 30.3645 101.901L28.5078 100.661L27.4366 102.264L29.2933 103.504C31.2174 104.79 31.3633 105.302 30.7544 106.214C30.1455 107.125 29.6105 107.305 27.8889 106.155C25.7116 104.7 24.9032 102.329 24.9032 102.329L23.4884 104.118C23.4884 104.118 24.4098 106.101 27.3466 108.063C29.5915 109.562 31.3763 109.339 32.5715 107.55C33.1691 106.655 33.5021 105.828 33.2215 104.932C34.1223 104.826 34.7703 104.258 35.3566 103.381Z" fill="#333333"/>
<path d="M61.6089 100.19L92.2555 120.663C92.865 121.07 93.0291 121.895 92.6218 122.504L72.1484 153.151C71.7411 153.76 70.9168 153.924 70.3073 153.517L39.6607 133.044C39.0512 132.636 38.8871 131.812 39.2943 131.203L59.7678 100.556C60.1751 99.9464 60.9993 99.7824 61.6089 100.19ZM62.1074 99.4434C61.0857 98.7608 59.7041 99.0358 59.0216 100.057L38.5481 130.704C37.8656 131.726 38.1405 133.107 39.1622 133.79L69.8087 154.263C70.8305 154.946 72.212 154.671 72.8946 153.649L93.3681 123.003C94.0506 121.981 93.7757 120.599 92.754 119.917L62.1074 99.4434Z" fill="#333333" stroke="black" stroke-width="0.1"/>
<path d="M98.1264 124.585L128.773 145.059C129.383 145.466 129.547 146.29 129.139 146.9L108.666 177.546C108.259 178.156 107.434 178.32 106.825 177.913L76.1782 157.439C75.5686 157.032 75.4046 156.208 75.8118 155.598L96.2853 124.952C96.6925 124.342 97.5168 124.178 98.1264 124.585ZM98.6249 123.839C97.6032 123.156 96.2216 123.431 95.5391 124.453L75.0656 155.1C74.383 156.121 74.658 157.503 75.6797 158.185L106.326 178.659C107.348 179.341 108.73 179.066 109.412 178.045L129.886 147.398C130.568 146.377 130.293 144.995 129.271 144.312L98.6249 123.839Z" fill="#333333" stroke="black" stroke-width="0.1"/>
</svg>
