<svg width="137" height="91" viewBox="0 0 137 91" fill="none" xmlns="http://www.w3.org/2000/svg">
<path d="M49.1438 1.84186H87.3945C88.1011 1.84186 88.674 2.41471 88.674 3.12136V41.372C88.674 42.0787 88.1011 42.6515 87.3945 42.6515H49.1438C48.4372 42.6515 47.8643 42.0787 47.8643 41.372V3.12136C47.8643 2.41471 48.4372 1.84186 49.1438 1.84186ZM49.1438 0.714258C47.8144 0.714258 46.7367 1.79196 46.7367 3.12136V41.372C46.7367 42.7014 47.8144 43.7791 49.1438 43.7791H87.3945C88.7239 43.7791 89.8016 42.7014 89.8016 41.372V3.12136C89.8016 1.79196 88.7239 0.714258 87.3945 0.714258H49.1438Z" fill="white" stroke="white" stroke-width="0.3"/>
<path d="M73.4418 15.5534L71.2658 23.1214H70.9778L68.8018 15.5534H66.9298L64.7538 23.1214H64.4658L62.2898 15.5534H60.4658L63.0418 24.4974H66.1778L67.8578 18.5934L69.5538 24.4974H72.6898L75.2658 15.5534H73.4418Z" fill="white"/>
<path d="M49.6672 48.3262H87.9178C88.6245 48.3262 89.1973 48.8991 89.1973 49.6057V87.8564C89.1973 88.563 88.6245 89.1359 87.9178 89.1359H49.6672C48.9606 89.1359 48.3877 88.563 48.3877 87.8564V49.6057C48.3877 48.8991 48.9606 48.3262 49.6672 48.3262ZM49.6672 47.1986C48.3378 47.1986 47.2601 48.2763 47.2601 49.6057V87.8564C47.2601 89.1858 48.3378 90.2635 49.6672 90.2635H87.9178C89.2472 90.2635 90.3249 89.1858 90.3249 87.8564V49.6057C90.3249 48.2763 89.2472 47.1986 87.9178 47.1986H49.6672Z" fill="white" stroke="white" stroke-width="0.3"/>
<path d="M69.7887 66.2987C67.1487 66.2987 67.0047 65.8827 67.0047 65.3227C67.0047 64.7467 67.7567 64.1387 69.2607 64.1387C70.7807 64.1387 72.3007 64.8107 72.3007 64.8107L72.9087 63.3067C72.9087 63.3067 71.5807 62.5227 69.4207 62.5227C66.9887 62.5227 65.2927 63.4987 65.2927 65.4827C65.2927 67.1307 66.5567 67.8987 68.8607 67.8987C71.1487 67.8987 71.7087 68.2987 71.7087 69.0347C71.7087 69.7707 70.7967 70.1227 69.2607 70.1227C67.7087 70.1227 65.4527 69.1147 65.4527 69.1147L64.7327 70.5867C64.7327 70.5867 66.9887 71.7387 69.4207 71.7387C71.8367 71.7387 73.3887 70.6507 73.3887 69.0667C73.3887 67.4667 72.1247 66.2987 69.7887 66.2987Z" fill="white"/>
<path d="M3.18295 47.9346H41.4336C42.1402 47.9346 42.7131 48.5075 42.7131 49.2141V87.4648C42.7131 88.1714 42.1402 88.7443 41.4336 88.7443H3.18295C2.4763 88.7443 1.90345 88.1714 1.90345 87.4648V49.2141C1.90345 48.5075 2.4763 47.9346 3.18295 47.9346ZM3.18295 46.807C1.85354 46.807 0.775842 47.8847 0.775842 49.2141V87.4648C0.775842 88.7942 1.85354 89.8719 3.18295 89.8719H41.4336C42.763 89.8719 43.8407 88.7942 43.8407 87.4648V49.2141C43.8407 47.8847 42.763 46.807 41.4336 46.807H3.18295Z" fill="white" stroke="white" stroke-width="0.3"/>
<path d="M20.667 62.6667L17.403 71.5947H19.195L19.915 69.6267H24.075L24.795 71.5947H26.587L23.307 62.6667H20.667ZM20.459 68.1227L21.915 64.1707H22.075L23.515 68.1227H20.459Z" fill="white"/>
<path d="M96.1519 47.9346H134.403C135.109 47.9346 135.682 48.5075 135.682 49.2141V87.4648C135.682 88.1714 135.109 88.7443 134.403 88.7443H96.1519C95.4453 88.7443 94.8724 88.1714 94.8724 87.4648V49.2141C94.8724 48.5075 95.4453 47.9346 96.1519 47.9346ZM96.1519 46.807C94.8225 46.807 93.7448 47.8847 93.7448 49.2141V87.4648C93.7448 88.7942 94.8225 89.8719 96.1519 89.8719H134.403C135.732 89.8719 136.81 88.7942 136.81 87.4648V49.2141C136.81 47.8847 135.732 46.807 134.403 46.807H96.1519Z" fill="white" stroke="white" stroke-width="0.3"/>
<path d="M115.539 62.6677H110.915V71.6117H115.539C117.923 71.5957 119.363 70.0917 119.363 67.1317C119.363 64.1717 117.923 62.6677 115.539 62.6677ZM115.539 70.0917H112.707V64.1717H115.539C116.675 64.1717 117.443 64.6517 117.443 67.1317C117.443 69.6117 116.675 70.0917 115.539 70.0917Z" fill="white"/>
</svg>
