<svg width="1230" height="12" viewBox="0 0 1230 12" fill="none" xmlns="http://www.w3.org/2000/svg">
<path d="M608.053 6.31743C604.376 12.1218 598.409 12.1218 594.729 6.31743C591.05 0.513053 585.085 0.513053 581.405 6.31743C577.726 12.1218 571.761 12.1218 568.082 6.31743C564.402 0.513053 558.437 0.513053 554.758 6.31743C551.08 12.1218 545.113 12.1218 541.433 6.31743C537.756 0.513053 531.789 0.513053 528.109 6.31743C524.43 12.1218 518.465 12.1218 514.786 6.31743C511.107 0.513053 505.141 0.513053 501.462 6.31743C497.783 12.1218 491.817 12.1218 488.138 6.31743C484.458 0.513053 478.493 0.513053 474.814 6.31743C471.135 12.1218 465.169 12.1218 461.49 6.31743C457.811 0.513053 451.845 0.513053 448.166 6.31743C444.487 12.1218 438.521 12.1218 434.842 6.31743C431.163 0.513053 425.197 0.513053 421.518 6.31743C417.839 12.1218 411.873 12.1218 408.194 6.31743C404.515 0.513053 398.549 0.513053 394.87 6.31743C391.191 12.1218 385.226 12.1218 381.546 6.31743C377.867 0.513053 371.902 0.513053 368.222 6.31743C364.543 12.1218 358.578 12.1218 354.898 6.31743C351.219 0.513053 345.254 0.513053 341.575 6.31743C337.896 12.1218 331.93 12.1218 328.251 6.31743C324.573 0.513053 318.606 0.513053 314.927 6.31743C311.247 12.1218 305.282 12.1218 301.603 6.31743C297.923 0.513053 291.958 0.513053 288.279 6.31743C284.6 12.1218 278.634 12.1218 274.955 6.31743C271.276 0.513053 265.31 0.513053 261.631 6.31743C257.952 12.1218 251.986 12.1218 248.307 6.31743C244.63 0.513053 238.663 0.513053 234.983 6.31743C231.304 12.1218 225.339 12.1218 221.659 6.31743C217.98 0.513053 212.015 0.513053 208.335 6.31743C204.656 12.1218 198.691 12.1218 195.012 6.31743C191.333 0.513053 185.367 0.513053 181.688 6.31743C178.008 12.1218 172.043 12.1218 168.364 6.31743C164.684 0.513053 158.719 0.513053 155.04 6.31743C151.36 12.1218 145.395 12.1218 141.716 6.31743C138.037 0.513053 132.071 0.513053 128.392 6.31743C124.713 12.1218 118.747 12.1218 115.068 6.31743C111.389 0.513053 105.423 0.513053 101.744 6.31743C98.0641 12.1218 92.0993 12.1218 88.4201 6.31743C84.7408 0.513053 78.7753 0.513053 75.096 6.31743C71.4168 12.1218 65.4512 12.1218 61.772 6.31743C58.0927 0.513053 52.1276 0.513053 48.4483 6.31743C44.7691 12.1218 38.8035 12.1218 35.1243 6.31743C31.4467 0.513053 25.4795 0.513053 21.8002 6.31743C18.1226 12.1218 12.1558 12.1218 8.47618 6.31743C6.62581 3.39705 4.19656 1.94479 1.771 1.96452V1.95253C4.19656 1.93473 6.62581 3.38428 8.47618 6.30543C12.1538 12.1098 18.121 12.1098 21.8002 6.30543C25.4778 0.501055 31.445 0.501055 35.1243 6.30543C38.8019 12.1098 44.7691 12.1098 48.4483 6.30543C52.1276 0.501055 58.0932 0.501055 61.772 6.30543C65.4508 12.1098 71.4168 12.1098 75.096 6.30543C78.7753 0.501055 84.7408 0.501055 88.4201 6.30543C92.0993 12.1098 98.0649 12.1098 101.744 6.30543C105.423 0.501055 111.389 0.501055 115.068 6.30543C118.747 12.1098 124.713 12.1098 128.392 6.30543C132.071 0.501055 138.037 0.501055 141.716 6.30543C145.395 12.1098 151.361 12.1098 155.04 6.30543C158.718 0.501055 164.684 0.501055 168.364 6.30543C172.043 12.1098 178.008 12.1098 181.688 6.30543C185.367 0.501055 191.332 0.501055 195.012 6.30543C198.691 12.1098 204.657 12.1098 208.335 6.30543C212.014 0.501055 217.98 0.501055 221.659 6.30543C225.339 12.1098 231.304 12.1098 234.983 6.30543C238.663 0.501055 244.628 0.501055 248.307 6.30543C251.985 12.1098 257.952 12.1098 261.631 6.30543C265.31 0.501055 271.276 0.501055 274.955 6.30543C278.634 12.1098 284.6 12.1098 288.279 6.30543C291.958 0.501055 297.923 0.501055 301.603 6.30543C305.282 12.1098 311.247 12.1098 314.927 6.30543C318.606 0.501055 324.571 0.501055 328.251 6.30543C331.928 12.1098 337.895 12.1098 341.575 6.30543C345.254 0.501055 351.219 0.501055 354.898 6.30543C358.578 12.1098 364.543 12.1098 368.222 6.30543C371.902 0.501055 377.867 0.501055 381.546 6.30543C385.226 12.1098 391.191 12.1098 394.87 6.30543C398.549 0.501055 404.514 0.501055 408.194 6.30543C411.874 12.1098 417.839 12.1098 421.518 6.30543C425.197 0.501055 431.163 0.501055 434.842 6.30543C438.521 12.1098 444.487 12.1098 448.166 6.30543C451.845 0.501055 457.811 0.501055 461.49 6.30543C465.169 12.1098 471.135 12.1098 474.814 6.30543C478.493 0.501055 484.458 0.501055 488.138 6.30543C491.817 12.1098 497.783 12.1098 501.462 6.30543C505.141 0.501055 511.107 0.501055 514.786 6.30543C518.465 12.1098 524.431 12.1098 528.109 6.30543C531.788 0.501055 537.754 0.501055 541.433 6.30543C545.111 12.1098 551.078 12.1098 554.758 6.30543C558.435 0.501055 564.402 0.501055 568.082 6.30543C571.761 12.1098 577.726 12.1098 581.405 6.30543C585.084 0.501055 591.05 0.501055 594.729 6.30543C598.409 12.1098 604.374 12.1098 608.053 6.30543C609.96 3.29683 612.48 1.85309 614.978 1.96221V1.97265C612.48 1.86275 609.96 3.30883 608.053 6.31743Z" stroke="url(#paint0_linear)" stroke-width="2" stroke-miterlimit="10"/>
<path d="M1221.26 6.31743C1217.58 12.1218 1211.62 12.1218 1207.94 6.31743C1204.26 0.513053 1198.29 0.513053 1194.61 6.31743C1190.93 12.1218 1184.97 12.1218 1181.29 6.31743C1177.61 0.513053 1171.64 0.513053 1167.96 6.31743C1164.29 12.1218 1158.32 12.1218 1154.64 6.31743C1150.96 0.513053 1145 0.513053 1141.32 6.31743C1137.64 12.1218 1131.67 12.1218 1127.99 6.31743C1124.31 0.513053 1118.35 0.513053 1114.67 6.31743C1110.99 12.1218 1105.02 12.1218 1101.34 6.31743C1097.67 0.513053 1091.7 0.513053 1088.02 6.31743C1084.34 12.1218 1078.38 12.1218 1074.7 6.31743C1071.02 0.513053 1065.05 0.513053 1061.37 6.31743C1057.69 12.1218 1051.73 12.1218 1048.05 6.31743C1044.37 0.513053 1038.4 0.513053 1034.73 6.31743C1031.05 12.1218 1025.08 12.1218 1021.4 6.31743C1017.72 0.513053 1011.76 0.513053 1008.08 6.31743C1004.4 12.1218 998.433 12.1218 994.753 6.31743C991.074 0.513053 985.109 0.513053 981.429 6.31743C977.75 12.1218 971.785 12.1218 968.105 6.31743C964.426 0.513053 958.461 0.513053 954.782 6.31743C951.103 12.1218 945.137 12.1218 941.458 6.31743C937.78 0.513053 931.813 0.513053 928.134 6.31743C924.454 12.1218 918.489 12.1218 914.81 6.31743C911.13 0.513053 905.165 0.513053 901.486 6.31743C897.807 12.1218 891.841 12.1218 888.162 6.31743C884.483 0.513053 878.517 0.513053 874.838 6.31743C871.159 12.1218 865.193 12.1218 861.514 6.31743C857.837 0.513053 851.87 0.513053 848.191 6.31743C844.511 12.1218 838.546 12.1218 834.866 6.31743C831.187 0.513053 825.222 0.513053 821.542 6.31743C817.863 12.1218 811.898 12.1218 808.219 6.31743C804.54 0.513053 798.574 0.513053 794.895 6.31743C791.215 12.1218 785.25 12.1218 781.571 6.31743C777.891 0.513053 771.926 0.513053 768.247 6.31743C764.567 12.1218 758.602 12.1218 754.923 6.31743C751.244 0.513053 745.278 0.513053 741.599 6.31743C737.92 12.1218 731.954 12.1218 728.275 6.31743C724.596 0.513053 718.63 0.513053 714.951 6.31743C711.271 12.1218 705.306 12.1218 701.627 6.31743C697.948 0.513053 691.982 0.513053 688.303 6.31743C684.624 12.1218 678.658 12.1218 674.979 6.31743C671.3 0.513053 665.335 0.513053 661.655 6.31743C657.976 12.1218 652.011 12.1218 648.331 6.31743C644.654 0.513053 638.687 0.513053 635.007 6.31743C631.33 12.1218 625.363 12.1218 621.683 6.31743C619.833 3.39705 617.404 1.94479 614.978 1.96452V1.95253C617.404 1.93473 619.833 3.38428 621.683 6.30543C625.361 12.1098 631.328 12.1098 635.007 6.30543C638.685 0.501055 644.652 0.501055 648.331 6.30543C652.009 12.1098 657.976 12.1098 661.655 6.30543C665.335 0.501055 671.3 0.501055 674.979 6.30543C678.658 12.1098 684.624 12.1098 688.303 6.30543C691.982 0.501055 697.948 0.501055 701.627 6.30543C705.306 12.1098 711.272 12.1098 714.951 6.30543C718.63 0.501055 724.596 0.501055 728.275 6.30543C731.954 12.1098 737.92 12.1098 741.599 6.30543C745.278 0.501055 751.244 0.501055 754.923 6.30543C758.602 12.1098 764.568 12.1098 768.247 6.30543C771.925 0.501055 777.891 0.501055 781.571 6.30543C785.25 12.1098 791.215 12.1098 794.895 6.30543C798.574 0.501055 804.539 0.501055 808.219 6.30543C811.898 12.1098 817.864 12.1098 821.542 6.30543C825.221 0.501055 831.187 0.501055 834.866 6.30543C838.546 12.1098 844.511 12.1098 848.191 6.30543C851.87 0.501055 857.835 0.501055 861.514 6.30543C865.192 12.1098 871.159 12.1098 874.838 6.30543C878.517 0.501055 884.483 0.501055 888.162 6.30543C891.841 12.1098 897.807 12.1098 901.486 6.30543C905.165 0.501055 911.13 0.501055 914.81 6.30543C918.489 12.1098 924.454 12.1098 928.134 6.30543C931.813 0.501055 937.778 0.501055 941.458 6.30543C945.135 12.1098 951.102 12.1098 954.782 6.30543C958.461 0.501055 964.426 0.501055 968.105 6.30543C971.785 12.1098 977.75 12.1098 981.429 6.30543C985.109 0.501055 991.074 0.501055 994.753 6.30543C998.433 12.1098 1004.4 12.1098 1008.08 6.30543C1011.76 0.501055 1017.72 0.501055 1021.4 6.30543C1025.08 12.1098 1031.05 12.1098 1034.73 6.30543C1038.4 0.501055 1044.37 0.501055 1048.05 6.30543C1051.73 12.1098 1057.69 12.1098 1061.37 6.30543C1065.05 0.501055 1071.02 0.501055 1074.7 6.30543C1078.38 12.1098 1084.34 12.1098 1088.02 6.30543C1091.7 0.501055 1097.67 0.501055 1101.34 6.30543C1105.02 12.1098 1110.99 12.1098 1114.67 6.30543C1118.35 0.501055 1124.31 0.501055 1127.99 6.30543C1131.67 12.1098 1137.64 12.1098 1141.32 6.30543C1145 0.501055 1150.96 0.501055 1154.64 6.30543C1158.32 12.1098 1164.29 12.1098 1167.96 6.30543C1171.64 0.501055 1177.61 0.501055 1181.29 6.30543C1184.97 12.1098 1190.93 12.1098 1194.61 6.30543C1198.29 0.501055 1204.26 0.501055 1207.94 6.30543C1211.62 12.1098 1217.58 12.1098 1221.26 6.30543C1223.17 3.29683 1225.69 1.85309 1228.19 1.96221V1.97265C1225.69 1.86275 1223.17 3.30883 1221.26 6.31743Z" stroke="url(#paint1_linear)" stroke-width="2" stroke-miterlimit="10"/>
<defs>
<linearGradient id="paint0_linear" x1="1.77099" y1="6.31075" x2="614.978" y2="6.31136" gradientUnits="userSpaceOnUse">
<stop stop-color="#EC653B"/>
<stop offset="1" stop-color="#3997EE"/>
</linearGradient>
<linearGradient id="paint1_linear" x1="614.978" y1="6.31075" x2="1228.19" y2="6.31136" gradientUnits="userSpaceOnUse">
<stop stop-color="#3997EE"/>
<stop offset="1" stop-color="#EC653B"/>
</linearGradient>
</defs>
</svg>
