<svg width="8" height="93" viewBox="0 0 8 93" fill="none" xmlns="http://www.w3.org/2000/svg">
<path d="M3.96084 91.9672C0.500769 89.7737 0.500769 86.2178 3.96084 84.0248C7.42091 81.8318 7.42091 78.2754 3.96084 76.0821C0.50077 73.8889 0.50077 70.3327 3.96084 68.1394C7.42091 65.9462 7.42091 62.3903 3.96084 60.1968C0.50077 58.0033 0.500771 54.4476 3.96084 52.2544C7.42091 50.0611 7.42091 46.5049 3.96084 44.3117C0.500771 42.1184 0.500771 38.5623 3.96084 36.369C7.42091 34.1758 7.42091 30.6199 3.96084 28.4266C0.500772 26.2334 0.500772 22.6772 3.96084 20.4839C7.42091 18.2917 7.42091 14.7345 3.96084 12.5413C0.500773 10.349 0.500773 6.79212 3.96084 4.59862C5.70172 3.49559 6.56744 2.04747 6.55567 0.601562L6.56282 0.601562C6.57343 2.04747 5.70933 3.49559 3.968 4.59862C0.507925 6.79089 0.507925 10.348 3.968 12.5413C7.42807 14.7336 7.42807 18.2907 3.968 20.4839C0.507924 22.6762 0.507924 26.2334 3.96799 28.4266C7.42807 30.6199 7.42807 34.176 3.96799 36.369C0.507923 38.562 0.507923 42.1184 3.96799 44.3117C7.42807 46.5049 7.42806 50.0611 3.96799 52.2544C0.507923 54.4476 0.507922 58.0038 3.96799 60.1968C7.42806 62.3898 7.42806 65.9462 3.96799 68.1394C0.507922 70.3327 0.507922 73.8889 3.96799 76.0821C7.42806 78.2754 7.42806 81.8315 3.96799 84.0248C0.507921 86.218 0.507921 89.7742 3.96799 91.9672" stroke="white" stroke-miterlimit="10"/>
</svg>
