<svg width="1283" height="13" viewBox="0 0 1283 13" fill="none" xmlns="http://www.w3.org/2000/svg">
<path d="M635.147 6.40929C631.3 13.6019 625.057 13.6019 621.208 6.40929C617.359 -0.783273 611.118 -0.783273 607.269 6.40929C603.42 13.6019 597.18 13.6019 593.331 6.40929C589.482 -0.783273 583.241 -0.783273 579.392 6.40929C575.545 13.6019 569.302 13.6019 565.453 6.40929C561.606 -0.783273 555.364 -0.783273 551.514 6.40929C547.665 13.6019 541.425 13.6019 537.576 6.40929C533.727 -0.783273 527.486 -0.783273 523.637 6.40929C519.788 13.6019 513.547 13.6019 509.698 6.40929C505.849 -0.783273 499.609 -0.783273 495.76 6.40929C491.911 13.6019 485.67 13.6019 481.821 6.40929C477.972 -0.783273 471.731 -0.783273 467.882 6.40929C464.033 13.6019 457.792 13.6019 453.944 6.40929C450.095 -0.783273 443.854 -0.783273 440.005 6.40929C436.156 13.6019 429.915 13.6019 426.066 6.40929C422.217 -0.783273 415.976 -0.783273 412.127 6.40929C408.278 13.6019 402.038 13.6019 398.189 6.40929C394.34 -0.783273 388.099 -0.783273 384.25 6.40929C380.401 13.6019 374.16 13.6019 370.311 6.40929C366.462 -0.783273 360.222 -0.783273 356.373 6.40929C352.524 13.6019 346.283 13.6019 342.434 6.40929C338.587 -0.783273 332.345 -0.783273 328.495 6.40929C324.646 13.6019 318.406 13.6019 314.557 6.40929C310.707 -0.783273 304.467 -0.783273 300.618 6.40929C296.77 13.6019 290.528 13.6019 286.679 6.40929C282.83 -0.783273 276.59 -0.783273 272.741 6.40929C268.892 13.6019 262.651 13.6019 258.802 6.40929C254.955 -0.783273 248.713 -0.783273 244.864 6.40929C241.015 13.6019 234.774 13.6019 230.925 6.40929C227.076 -0.783273 220.835 -0.783273 216.986 6.40929C213.137 13.6019 206.896 13.6019 203.048 6.40929C199.199 -0.783273 192.958 -0.783273 189.109 6.40929C185.26 13.6019 179.019 13.6019 175.17 6.40929C171.321 -0.783273 165.081 -0.783273 161.231 6.40929C157.382 13.6019 151.141 13.6019 147.293 6.40929C143.444 -0.783273 137.203 -0.783273 133.354 6.40929C129.505 13.6019 123.264 13.6019 119.415 6.40929C115.566 -0.783273 109.326 -0.783273 105.476 6.40929C101.627 13.6019 95.387 13.6019 91.538 6.40929C87.689 -0.783273 81.4482 -0.783273 77.5992 6.40929C73.7502 13.6019 67.5094 13.6019 63.6604 6.40929C59.8114 -0.783273 53.571 -0.783273 49.722 6.40929C45.873 13.6019 39.6322 13.6019 35.7832 6.40929C31.9359 -0.783273 25.6934 -0.783273 21.8444 6.40929C17.9971 13.6019 11.755 13.6019 7.90554 6.40929C5.9698 2.79047 3.42847 0.990881 0.890991 1.01534V1.00047C3.42847 0.978411 5.9698 2.77465 7.90554 6.39442C11.7528 13.587 17.9954 13.587 21.8444 6.39442C25.6916 -0.798141 31.9342 -0.798141 35.7832 6.39442C39.6305 13.587 45.873 13.587 49.722 6.39442C53.571 -0.798141 59.8118 -0.798141 63.6604 6.39442C67.509 13.587 73.7502 13.587 77.5992 6.39442C81.4482 -0.798141 87.689 -0.798141 91.538 6.39442C95.387 13.587 101.628 13.587 105.476 6.39442C109.325 -0.798141 115.566 -0.798141 119.415 6.39442C123.264 13.587 129.505 13.587 133.354 6.39442C137.203 -0.798141 143.444 -0.798141 147.293 6.39442C151.142 13.587 157.383 13.587 161.231 6.39442C165.08 -0.798141 171.321 -0.798141 175.17 6.39442C179.019 13.587 185.26 13.587 189.109 6.39442C192.958 -0.798141 199.198 -0.798141 203.048 6.39442C206.897 13.587 213.138 13.587 216.986 6.39442C220.835 -0.798141 227.076 -0.798141 230.925 6.39442C234.774 13.587 241.015 13.587 244.864 6.39442C248.713 -0.798141 254.953 -0.798141 258.802 6.39442C262.649 13.587 268.892 13.587 272.741 6.39442C276.59 -0.798141 282.83 -0.798141 286.679 6.39442C290.528 13.587 296.769 13.587 300.618 6.39442C304.467 -0.798141 310.708 -0.798141 314.557 6.39442C318.406 13.587 324.646 13.587 328.495 6.39442C332.344 -0.798141 338.585 -0.798141 342.434 6.39442C346.281 13.587 352.524 13.587 356.373 6.39442C360.222 -0.798141 366.462 -0.798141 370.311 6.39442C374.16 13.587 380.401 13.587 384.25 6.39442C388.099 -0.798141 394.34 -0.798141 398.189 6.39442C402.038 13.587 408.278 13.587 412.127 6.39442C415.976 -0.798141 422.217 -0.798141 426.066 6.39442C429.916 13.587 436.156 13.587 440.005 6.39442C443.854 -0.798141 450.095 -0.798141 453.944 6.39442C457.793 13.587 464.033 13.587 467.882 6.39442C471.731 -0.798141 477.972 -0.798141 481.821 6.39442C485.67 13.587 491.911 13.587 495.76 6.39442C499.609 -0.798141 505.849 -0.798141 509.698 6.39442C513.547 13.587 519.788 13.587 523.637 6.39442C527.486 -0.798141 533.727 -0.798141 537.576 6.39442C541.425 13.587 547.666 13.587 551.514 6.39442C555.363 -0.798141 561.604 -0.798141 565.453 6.39442C569.3 13.587 575.543 13.587 579.392 6.39442C583.239 -0.798141 589.482 -0.798141 593.331 6.39442C597.18 13.587 603.421 13.587 607.269 6.39442C611.118 -0.798141 617.359 -0.798141 621.208 6.39442C625.057 13.587 631.298 13.587 635.147 6.39442C637.141 2.66628 639.778 0.877247 642.391 1.01247V1.0254C639.778 0.889224 637.141 2.68114 635.147 6.40929Z" fill="url(#paint0_linear)" stroke="url(#paint1_linear)" stroke-width="2" stroke-miterlimit="10"/>
<path d="M1276.65 6.40929C1272.8 13.6019 1266.56 13.6019 1262.71 6.40929C1258.86 -0.783273 1252.62 -0.783273 1248.77 6.40929C1244.92 13.6019 1238.68 13.6019 1234.83 6.40929C1230.98 -0.783273 1224.74 -0.783273 1220.89 6.40929C1217.04 13.6019 1210.8 13.6019 1206.95 6.40929C1203.11 -0.783273 1196.86 -0.783273 1193.01 6.40929C1189.16 13.6019 1182.92 13.6019 1179.08 6.40929C1175.23 -0.783273 1168.99 -0.783273 1165.14 6.40929C1161.29 13.6019 1155.05 13.6019 1151.2 6.40929C1147.35 -0.783273 1141.11 -0.783273 1137.26 6.40929C1133.41 13.6019 1127.17 13.6019 1123.32 6.40929C1119.47 -0.783273 1113.23 -0.783273 1109.38 6.40929C1105.53 13.6019 1099.29 13.6019 1095.44 6.40929C1091.6 -0.783273 1085.35 -0.783273 1081.51 6.40929C1077.66 13.6019 1071.42 13.6019 1067.57 6.40929C1063.72 -0.783273 1057.48 -0.783273 1053.63 6.40929C1049.78 13.6019 1043.54 13.6019 1039.69 6.40929C1035.84 -0.783273 1029.6 -0.783273 1025.75 6.40929C1021.9 13.6019 1015.66 13.6019 1011.81 6.40929C1007.96 -0.783273 1001.72 -0.783273 997.873 6.40929C994.024 13.6019 987.783 13.6019 983.934 6.40929C980.087 -0.783273 973.845 -0.783273 969.995 6.40929C966.146 13.6019 959.906 13.6019 956.057 6.40929C952.207 -0.783273 945.967 -0.783273 942.118 6.40929C938.27 13.6019 932.028 13.6019 928.179 6.40929C924.33 -0.783273 918.09 -0.783273 914.241 6.40929C910.392 13.6019 904.151 13.6019 900.302 6.40929C896.455 -0.783273 890.213 -0.783273 886.364 6.40929C882.515 13.6019 876.274 13.6019 872.425 6.40929C868.576 -0.783273 862.335 -0.783273 858.486 6.40929C854.637 13.6019 848.396 13.6019 844.548 6.40929C840.699 -0.783273 834.458 -0.783273 830.609 6.40929C826.76 13.6019 820.519 13.6019 816.67 6.40929C812.821 -0.783273 806.581 -0.783273 802.731 6.40929C798.882 13.6019 792.641 13.6019 788.793 6.40929C784.944 -0.783273 778.703 -0.783273 774.854 6.40929C771.005 13.6019 764.764 13.6019 760.915 6.40929C757.066 -0.783273 750.826 -0.783273 746.976 6.40929C743.127 13.6019 736.887 13.6019 733.038 6.40929C729.189 -0.783273 722.948 -0.783273 719.099 6.40929C715.25 13.6019 709.009 13.6019 705.16 6.40929C701.311 -0.783273 695.071 -0.783273 691.222 6.40929C687.373 13.6019 681.132 13.6019 677.283 6.40929C673.436 -0.783273 667.193 -0.783273 663.344 6.40929C659.497 13.6019 653.255 13.6019 649.406 6.40929C647.47 2.79047 644.928 0.990881 642.391 1.01534V1.00047C644.928 0.978411 647.47 2.77465 649.406 6.39442C653.253 13.587 659.495 13.587 663.344 6.39442C667.192 -0.798141 673.434 -0.798141 677.283 6.39442C681.13 13.587 687.373 13.587 691.222 6.39442C695.071 -0.798141 701.312 -0.798141 705.16 6.39442C709.009 13.587 715.25 13.587 719.099 6.39442C722.948 -0.798141 729.189 -0.798141 733.038 6.39442C736.887 13.587 743.128 13.587 746.976 6.39442C750.825 -0.798141 757.066 -0.798141 760.915 6.39442C764.764 13.587 771.005 13.587 774.854 6.39442C778.703 -0.798141 784.944 -0.798141 788.793 6.39442C792.642 13.587 798.883 13.587 802.731 6.39442C806.58 -0.798141 812.821 -0.798141 816.67 6.39442C820.519 13.587 826.76 13.587 830.609 6.39442C834.458 -0.798141 840.698 -0.798141 844.548 6.39442C848.397 13.587 854.638 13.587 858.486 6.39442C862.335 -0.798141 868.576 -0.798141 872.425 6.39442C876.274 13.587 882.515 13.587 886.364 6.39442C890.213 -0.798141 896.453 -0.798141 900.302 6.39442C904.149 13.587 910.392 13.587 914.241 6.39442C918.09 -0.798141 924.33 -0.798141 928.179 6.39442C932.028 13.587 938.269 13.587 942.118 6.39442C945.967 -0.798141 952.208 -0.798141 956.057 6.39442C959.906 13.587 966.146 13.587 969.995 6.39442C973.844 -0.798141 980.085 -0.798141 983.934 6.39442C987.781 13.587 994.024 13.587 997.873 6.39442C1001.72 -0.798141 1007.96 -0.798141 1011.81 6.39442C1015.66 13.587 1021.9 13.587 1025.75 6.39442C1029.6 -0.798141 1035.84 -0.798141 1039.69 6.39442C1043.54 13.587 1049.78 13.587 1053.63 6.39442C1057.48 -0.798141 1063.72 -0.798141 1067.57 6.39442C1071.42 13.587 1077.66 13.587 1081.51 6.39442C1085.35 -0.798141 1091.59 -0.798141 1095.44 6.39442C1099.29 13.587 1105.53 13.587 1109.38 6.39442C1113.23 -0.798141 1119.47 -0.798141 1123.32 6.39442C1127.17 13.587 1133.41 13.587 1137.26 6.39442C1141.11 -0.798141 1147.35 -0.798141 1151.2 6.39442C1155.05 13.587 1161.29 13.587 1165.14 6.39442C1168.99 -0.798141 1175.23 -0.798141 1179.08 6.39442C1182.92 13.587 1189.17 13.587 1193.01 6.39442C1196.86 -0.798141 1203.1 -0.798141 1206.95 6.39442C1210.8 13.587 1217.04 13.587 1220.89 6.39442C1224.74 -0.798141 1230.98 -0.798141 1234.83 6.39442C1238.68 13.587 1244.92 13.587 1248.77 6.39442C1252.62 -0.798141 1258.86 -0.798141 1262.71 6.39442C1266.56 13.587 1272.8 13.587 1276.65 6.39442C1278.64 2.66628 1281.28 0.877247 1283.89 1.01247V1.0254C1281.28 0.889224 1278.64 2.68114 1276.65 6.40929Z" fill="url(#paint2_linear)" stroke="url(#paint3_linear)" stroke-width="2" stroke-miterlimit="10"/>
<defs>
<linearGradient id="paint0_linear" x1="321.641" y1="1" x2="321.641" y2="11.8037" gradientUnits="userSpaceOnUse">
<stop stop-color="#EC653B"/>
<stop offset="1" stop-color="#3997EE"/>
</linearGradient>
<linearGradient id="paint1_linear" x1="321.641" y1="1" x2="321.641" y2="11.8037" gradientUnits="userSpaceOnUse">
<stop stop-color="#EC653B"/>
<stop offset="1" stop-color="#3997EE"/>
</linearGradient>
<linearGradient id="paint2_linear" x1="963.141" y1="1" x2="963.141" y2="11.8037" gradientUnits="userSpaceOnUse">
<stop stop-color="#EC653B"/>
<stop offset="1" stop-color="#3997EE"/>
</linearGradient>
<linearGradient id="paint3_linear" x1="963.141" y1="1" x2="963.141" y2="11.8037" gradientUnits="userSpaceOnUse">
<stop stop-color="#EC653B"/>
<stop offset="1" stop-color="#3997EE"/>
</linearGradient>
</defs>
</svg>
