<svg width="54" height="41" viewBox="0 0 54 41" fill="none" xmlns="http://www.w3.org/2000/svg">
<path d="M49.7897 4.77283C47.3898 2.07694 44.4772 0.709961 41.1329 0.709961C38.1272 0.709961 35.5791 1.78029 33.5588 3.89107C31.5515 5.98837 30.5336 8.5934 30.5336 11.634C30.5336 14.5073 31.5617 17.0677 33.5894 19.2443C35.3781 21.1644 37.6313 22.3858 40.2986 22.8836C39.8322 26.42 36.7058 29.621 30.9877 32.4102L29.9581 32.9125L34.1797 40.7063L35.1328 40.2233C47.225 34.0938 53.3562 25.4313 53.3562 14.4763C53.3562 10.6968 52.1563 7.43221 49.7897 4.77283ZM35.0878 37.7719L32.9727 33.8675C39.3334 30.5345 42.556 26.528 42.556 21.9471V20.9663L41.5815 20.856C38.9567 20.5589 36.8682 19.5421 35.1964 17.7473C33.5368 15.9657 32.7299 13.9661 32.7299 11.634C32.7299 9.14376 33.5202 7.10786 35.1455 5.40949C36.7577 3.72491 38.7163 2.906 41.133 2.906C43.8614 2.906 46.1564 3.99428 48.1491 6.23285C50.1752 8.50938 51.1602 11.2058 51.1602 14.4762C51.1602 19.4972 49.7463 24.0301 46.9581 27.9491C44.2976 31.6884 40.3072 34.9896 35.0878 37.7719Z" fill="url(#paint0_linear)"/>
<path d="M20.0233 4.76883C17.5969 2.07626 14.6722 0.710937 11.3303 0.710937C8.32168 0.710937 5.78511 1.78324 3.79144 3.89796C1.81487 5.99443 0.812586 8.59748 0.812586 11.6349C0.812586 14.5082 1.8407 17.0686 3.86819 19.2453C5.65307 21.1613 7.8792 22.3815 10.497 22.8815C10.0361 26.4207 6.93583 29.6233 1.26358 32.4129L0.249573 32.9114L4.36617 40.7108L5.32862 40.2252C17.4757 34.0961 23.6349 25.4331 23.6349 14.4772C23.6348 10.6948 22.4195 7.42841 20.0233 4.76883ZM5.29668 37.7691L3.23921 33.8708C9.55372 30.5366 12.7533 26.5291 12.7533 21.948V20.9694L11.781 20.8571C9.21008 20.5605 7.14722 19.5436 5.47498 17.7482C3.81529 15.9667 3.00863 13.967 3.00863 11.6349C3.00863 9.14152 3.78739 7.10345 5.3892 5.40455C6.97358 3.72401 8.91706 2.90698 11.3303 2.90698C14.0615 2.90698 16.3715 3.99681 18.3917 6.23891C20.442 8.51419 21.4387 11.209 21.4387 14.4772C21.4387 19.4973 20.0187 24.0296 17.2179 27.9482C14.5458 31.6864 10.5384 34.9871 5.29668 37.7691Z" fill="url(#paint1_linear)"/>
<defs>
<linearGradient id="paint0_linear" x1="41.6571" y1="0.709961" x2="41.6571" y2="40.7063" gradientUnits="userSpaceOnUse">
<stop stop-color="#EC653B"/>
<stop offset="1" stop-color="#3997EE"/>
</linearGradient>
<linearGradient id="paint1_linear" x1="11.9422" y1="0.710937" x2="11.9422" y2="40.7108" gradientUnits="userSpaceOnUse">
<stop stop-color="#EC653B"/>
<stop offset="1" stop-color="#3997EE"/>
</linearGradient>
</defs>
</svg>
