<svg width="121" height="141" viewBox="0 0 121 141" fill="none" xmlns="http://www.w3.org/2000/svg">
<rect x="60.4268" y="7.44037" width="37.6789" height="62.7987" rx="2.35" transform="rotate(-10.2205 60.4268 7.44037)" fill="white" stroke="#333333" stroke-width="1.3"/>
<rect x="53.4392" y="17.5019" width="37.6789" height="62.7987" rx="2.35" transform="rotate(-10.2205 53.4392 17.5019)" fill="white" stroke="#333333" stroke-width="1.3"/>
<rect x="46.4516" y="27.5634" width="37.6789" height="62.7987" rx="2.35" transform="rotate(-10.2205 46.4516 27.5634)" fill="white" stroke="#333333" stroke-width="1.3"/>
<rect x="39.464" y="37.6249" width="37.6789" height="62.7987" rx="2.35" transform="rotate(-10.2205 39.464 37.6249)" fill="white" stroke="#333333" stroke-width="1.3"/>
<rect x="32.4765" y="47.686" width="37.6789" height="62.7987" rx="2.35" transform="rotate(-10.2205 32.4765 47.686)" fill="white" stroke="#333333" stroke-width="1.3"/>
<rect x="25.4889" y="57.7475" width="37.6789" height="62.7987" rx="2.35" transform="rotate(-10.2205 25.4889 57.7475)" fill="white" stroke="#333333" stroke-width="1.3"/>
<rect x="18.5014" y="67.809" width="37.6789" height="62.7987" rx="2.35" transform="rotate(-10.2205 18.5014 67.809)" fill="white" stroke="#333333" stroke-width="1.3"/>
<rect x="11.5138" y="77.8705" width="37.6789" height="62.7987" rx="2.35" transform="rotate(-10.2205 11.5138 77.8705)" fill="white" stroke="#333333" stroke-width="1.3"/>
</svg>
