<?xml version="1.0" encoding="UTF-8" standalone="no" ?>
<!DOCTYPE svg PUBLIC "-//W3C//DTD SVG 1.1//EN" "http://www.w3.org/Graphics/SVG/1.1/DTD/svg11.dtd">
<svg xmlns="http://www.w3.org/2000/svg" xmlns:xlink="http://www.w3.org/1999/xlink" version="1.1" width="1080" height="1080" viewBox="0 0 1080 1080" xml:space="preserve">
<desc>Created with Fabric.js 5.2.4</desc>
<defs>
</defs>
<rect x="0" y="0" width="100%" height="100%" fill="transparent"></rect>
<g transform="matrix(1 0 0 1 540 540)" id="ade5901f-55c5-441b-b678-8c66402041eb"  >
</g>
<g transform="matrix(1 0 0 1 540 540)" id="b89dbf34-3f28-43c7-88b0-d37652469ebd"  >
<rect style="stroke: none; stroke-width: 1; stroke-dasharray: none; stroke-linecap: butt; stroke-dashoffset: 0; stroke-linejoin: miter; stroke-miterlimit: 4; fill: rgb(255,255,255); fill-rule: nonzero; opacity: 1; visibility: hidden;" vector-effect="non-scaling-stroke"  x="-540" y="-540" rx="0" ry="0" width="1080" height="1080" />
</g>
<g transform="matrix(13.55 0 0 13.55 517.33 539.96)"  >
<path style="stroke: none; stroke-width: 1; stroke-dasharray: none; stroke-linecap: butt; stroke-dashoffset: 0; stroke-linejoin: miter; stroke-miterlimit: 4; fill: rgb(51,51,51); fill-rule: evenodd; opacity: 1;" vector-effect="non-scaling-stroke"  transform=" translate(-37.25, -36.81)" d="M 66.3384 6.22983 L 8.16349 6.22983 C 5.00197 6.22983 2.43906 8.79275 2.43906 11.9543 L 2.43906 61.6664 C 2.43906 64.8279 5.00197 67.3908 8.16349 67.3908 L 66.3384 67.3908 C 69.4999 67.3908 72.0629 64.8279 72.0629 61.6664 L 72.0629 11.9543 C 72.0629 8.79274 69.4999 6.22983 66.3384 6.22983 Z M 8.16349 4.42212 C 4.0036 4.42212 0.631348 7.79437 0.631348 11.9543 L 0.631348 61.6664 C 0.631348 65.8263 4.0036 69.1985 8.16349 69.1985 L 66.3384 69.1985 C 70.4983 69.1985 73.8706 65.8263 73.8706 61.6664 L 73.8706 11.9543 C 73.8706 7.79437 70.4983 4.42212 66.3384 4.42212 L 8.16349 4.42212 Z" stroke-linecap="round" />
</g>
<g transform="matrix(13.55 0 0 13.55 518.99 302.79)"  >
<path style="stroke: none; stroke-width: 1; stroke-dasharray: none; stroke-linecap: butt; stroke-dashoffset: 0; stroke-linejoin: miter; stroke-miterlimit: 4; fill: rgb(51,51,51); fill-rule: evenodd; opacity: 1;" vector-effect="non-scaling-stroke"  transform=" translate(-37.63, -20.25)" d="M 73.6313 21 L 1.63135 21 L 1.63135 19.5 L 73.6313 19.5 L 73.6313 21 Z" stroke-linecap="round" />
</g>
<g transform="matrix(13.55 0 0 13.55 220.9 96.13)"  >
<path style="stroke: none; stroke-width: 1; stroke-dasharray: none; stroke-linecap: butt; stroke-dashoffset: 0; stroke-linejoin: miter; stroke-miterlimit: 4; fill: rgb(51,51,51); fill-rule: nonzero; opacity: 1;" vector-effect="non-scaling-stroke"  transform=" translate(-15.63, -5)" d="M 12.6313 0 L 18.6313 0 L 18.6313 10 L 12.6313 10 L 12.6313 0 Z" stroke-linecap="round" />
</g>
<g transform="matrix(13.55 0 0 13.55 817.16 96.13)"  >
<path style="stroke: none; stroke-width: 1; stroke-dasharray: none; stroke-linecap: butt; stroke-dashoffset: 0; stroke-linejoin: miter; stroke-miterlimit: 4; fill: rgb(51,51,51); fill-rule: nonzero; opacity: 1;" vector-effect="non-scaling-stroke"  transform=" translate(-59.63, -5)" d="M 56.6313 0 L 62.6313 0 L 62.6313 10 L 56.6313 10 L 56.6313 0 Z" stroke-linecap="round" />
</g>
<g transform="matrix(1 0 0 1 540 540)" style="" id="fcc898cd-fbba-4cf4-b0f8-96c1a4e1a52c"  >
		<text xml:space="preserve" font-family="Lato" font-size="40" font-style="normal" font-weight="400" style="stroke: none; stroke-width: 1; stroke-dasharray: none; stroke-linecap: butt; stroke-dashoffset: 0; stroke-linejoin: miter; stroke-miterlimit: 4; fill: rgb(0,0,0); fill-rule: nonzero; opacity: 1; white-space: pre;" ></text>
</g>
<g transform="matrix(1 0 0 1 519.06 506.61)" style="" id="5d456d4a-6a83-48aa-8c60-c6dad7460839"  >
		<text xml:space="preserve" font-family="Alegreya" font-size="200" font-style="normal" font-weight="700" style="stroke: none; stroke-width: 1; stroke-dasharray: none; stroke-linecap: butt; stroke-dashoffset: 0; stroke-linejoin: miter; stroke-miterlimit: 4; fill: rgb(51,51,51); fill-rule: nonzero; opacity: 1; white-space: pre;" ><tspan x="-184.8" y="62.83" >04th</tspan></text>
</g>
<g transform="matrix(1 0 0 1 524.8 700.31)" style="" id="fe0af8b9-5d60-4277-915b-e2ea0d72136b"  >
		<text xml:space="preserve" font-family="Alegreya" font-size="193" font-style="normal" font-weight="700" style="stroke: none; stroke-width: 1; stroke-dasharray: none; stroke-linecap: butt; stroke-dashoffset: 0; stroke-linejoin: miter; stroke-miterlimit: 4; fill: rgb(51,51,51); fill-rule: nonzero; opacity: 1; white-space: pre;" ><tspan x="-315.84" y="60.63" >January</tspan></text>
</g>
</svg>