<?xml version="1.0" encoding="UTF-8" standalone="no" ?>
<!DOCTYPE svg PUBLIC "-//W3C//DTD SVG 1.1//EN" "http://www.w3.org/Graphics/SVG/1.1/DTD/svg11.dtd">
<svg xmlns="http://www.w3.org/2000/svg" xmlns:xlink="http://www.w3.org/1999/xlink" version="1.1" width="1080" height="1080" viewBox="0 0 1080 1080" xml:space="preserve">
<desc>Created with Fabric.js 5.2.4</desc>
<defs>
</defs>
<rect x="0" y="0" width="100%" height="100%" fill="transparent"></rect>
<g transform="matrix(1 0 0 1 540 540)" id="8b598a94-bf77-4cd3-aad5-36222b6e5ca3"  >
</g>
<g transform="matrix(1 0 0 1 540 540)" id="e0e47fcb-5ebb-444f-930c-5c5f3bed9ec6"  >
<rect style="stroke: none; stroke-width: 1; stroke-dasharray: none; stroke-linecap: butt; stroke-dashoffset: 0; stroke-linejoin: miter; stroke-miterlimit: 4; fill: rgb(255,255,255); fill-rule: nonzero; opacity: 1; visibility: hidden;" vector-effect="non-scaling-stroke"  x="-540" y="-540" rx="0" ry="0" width="1080" height="1080" />
</g>
<g transform="matrix(14.3 0 0 14.3 540 571.76)"  >
<path style="stroke: none; stroke-width: 1; stroke-dasharray: none; stroke-linecap: butt; stroke-dashoffset: 0; stroke-linejoin: miter; stroke-miterlimit: 4; fill: rgb(51,51,51); fill-rule: evenodd; opacity: 1;" vector-effect="non-scaling-stroke"  transform=" translate(-37.25, -36.81)" d="M 66.3384 6.22983 L 8.16349 6.22983 C 5.00197 6.22983 2.43906 8.79275 2.43906 11.9543 L 2.43906 61.6664 C 2.43906 64.8279 5.00197 67.3908 8.16349 67.3908 L 66.3384 67.3908 C 69.4999 67.3908 72.0629 64.8279 72.0629 61.6664 L 72.0629 11.9543 C 72.0629 8.79274 69.4999 6.22983 66.3384 6.22983 Z M 8.16349 4.42212 C 4.0036 4.42212 0.631348 7.79437 0.631348 11.9543 L 0.631348 61.6664 C 0.631348 65.8263 4.0036 69.1985 8.16349 69.1985 L 66.3384 69.1985 C 70.4983 69.1985 73.8706 65.8263 73.8706 61.6664 L 73.8706 11.9543 C 73.8706 7.79437 70.4983 4.42212 66.3384 4.42212 L 8.16349 4.42212 Z" stroke-linecap="round" />
</g>
<g transform="matrix(14.3 0 0 14.3 545.61 334.88)"  >
<path style="stroke: none; stroke-width: 1; stroke-dasharray: none; stroke-linecap: butt; stroke-dashoffset: 0; stroke-linejoin: miter; stroke-miterlimit: 4; fill: rgb(51,51,51); fill-rule: evenodd; opacity: 1;" vector-effect="non-scaling-stroke"  transform=" translate(-37.63, -20.25)" d="M 73.6313 21 L 1.63135 21 L 1.63135 19.5 L 73.6313 19.5 L 73.6313 21 Z" stroke-linecap="round" />
</g>
<g transform="matrix(14.3 0 0 14.3 230.95 116.89)"  >
<path style="stroke: none; stroke-width: 1; stroke-dasharray: none; stroke-linecap: butt; stroke-dashoffset: 0; stroke-linejoin: miter; stroke-miterlimit: 4; fill: rgb(51,51,51); fill-rule: nonzero; opacity: 1;" vector-effect="non-scaling-stroke"  transform=" translate(-15.63, -5)" d="M 12.6313 0 L 18.6313 0 L 18.6313 10 L 12.6313 10 L 12.6313 0 Z" stroke-linecap="round" />
</g>
<g transform="matrix(14.3 0 0 14.3 859.95 116.89)"  >
<path style="stroke: none; stroke-width: 1; stroke-dasharray: none; stroke-linecap: butt; stroke-dashoffset: 0; stroke-linejoin: miter; stroke-miterlimit: 4; fill: rgb(51,51,51); fill-rule: nonzero; opacity: 1;" vector-effect="non-scaling-stroke"  transform=" translate(-59.63, -5)" d="M 56.6313 0 L 62.6313 0 L 62.6313 10 L 56.6313 10 L 56.6313 0 Z" stroke-linecap="round" />
</g>
<g transform="matrix(6.01 0 0 6.01 524.79 513.08)" style="" id="98d7429f-bd66-4b51-9705-19d671db0054"  >
		<text xml:space="preserve" font-family="Alegreya" font-size="80" font-style="normal" font-weight="700" style="stroke: none; stroke-width: 1; stroke-dasharray: none; stroke-linecap: butt; stroke-dashoffset: 0; stroke-linejoin: miter; stroke-miterlimit: 4; fill: rgb(51,51,51); fill-rule: nonzero; opacity: 1; white-space: pre;" ><tspan x="-39.44" y="25.13" >02</tspan></text>
</g>
<g transform="matrix(3.28 0 0 3.28 540 778.89)" style="" id="1b385274-0dbb-4d6d-8225-829610f64499"  >
		<text xml:space="preserve" font-family="Alegreya" font-size="80" font-style="normal" font-weight="700" style="stroke: none; stroke-width: 1; stroke-dasharray: none; stroke-linecap: butt; stroke-dashoffset: 0; stroke-linejoin: miter; stroke-miterlimit: 4; fill: rgb(51,51,51); fill-rule: nonzero; opacity: 1; white-space: pre;" ><tspan x="-130.92" y="25.13" >January</tspan></text>
</g>
</svg>