<svg width="500" height="300" viewBox="0 0 500 300" fill="none" xmlns="http://www.w3.org/2000/svg">
<path d="M354.267 45.7324H145.732V254.267H354.267V45.7324Z" fill="#FBB400"/>
<path d="M255.999 144.001H145.732V254.268H255.999V144.001Z" fill="#17BFFF"/>
<path d="M354.182 129.999H230V254.182H354.182V129.999Z" fill="#F82B60"/>
<path d="M334.123 220.928L334.081 221.364C333.786 223.873 332.739 226.235 331.078 228.139C328.753 230.84 325.937 233.074 322.779 234.725C313.819 239.254 303.886 241.516 293.849 241.312C283.811 241.516 273.876 239.254 264.916 234.725C261.76 233.073 258.946 230.838 256.621 228.139C254.962 226.234 253.916 223.873 253.62 221.364L253.578 220.928V204.939C261.332 213.152 276.465 218.738 293.849 218.738C311.232 218.738 326.363 213.172 334.119 204.96L334.123 220.928Z" fill="white"/>
<path d="M334.123 192.808L334.081 193.246C333.786 195.755 332.739 198.116 331.079 200.019C328.754 202.721 325.937 204.956 322.779 206.607C313.82 211.133 303.888 213.392 293.853 213.186C283.815 213.391 273.881 211.13 264.921 206.601C261.765 204.948 258.95 202.713 256.625 200.013C254.966 198.109 253.92 195.748 253.624 193.24L253.583 192.802V176.217C257.063 179.906 261.983 183.011 267.736 185.222C276.08 188.375 284.933 189.965 293.853 189.912C311.216 189.912 326.347 184.346 334.123 176.148V192.808Z" fill="white"/>
<path d="M334.123 164.004C334.036 166.395 333.156 168.69 331.621 170.527C329.4 173.338 326.634 175.671 323.488 177.385C314.364 182.195 304.164 184.598 293.853 184.367C285.609 184.412 277.427 182.942 269.715 180.03C265.154 178.414 261.015 175.792 257.605 172.36C255.173 170.058 253.731 166.901 253.583 163.555C253.638 161.014 254.524 158.561 256.106 156.571C258.321 153.758 261.078 151.418 264.214 149.69C273.338 144.877 283.54 142.472 293.853 142.702C304.166 142.471 314.367 144.874 323.492 149.686C326.644 151.4 329.412 153.742 331.625 156.567C333.16 158.404 334.041 160.7 334.127 163.092C334.147 163.396 334.145 163.7 334.123 164.004V164.004Z" fill="white"/>
<path d="M269.915 45.7324H145.732V169.915H269.915V45.7324Z" fill="#2D25E8"/>
<path d="M231.603 93.5908L223.47 120.023L217.373 75.2939C205.173 75.2939 197.04 85.46 195.007 93.5908L184.843 120.023V93.5908C182.81 83.4268 170.611 75.2939 162.478 75.2939L172.644 140.357C186.874 140.357 192.974 130.191 197.042 122.06L205.175 99.6946L211.275 140.359C225.505 140.359 231.605 132.226 235.674 122.062L256.004 75.3002C241.769 75.2939 235.669 85.46 231.603 93.5908Z" fill="white"/>
</svg>
