<?xml version="1.0" encoding="UTF-8" standalone="no" ?>
<!DOCTYPE svg PUBLIC "-//W3C//DTD SVG 1.1//EN" "http://www.w3.org/Graphics/SVG/1.1/DTD/svg11.dtd">
<svg xmlns="http://www.w3.org/2000/svg" xmlns:xlink="http://www.w3.org/1999/xlink" version="1.1" width="1080" height="1080" viewBox="0 0 1080 1080" xml:space="preserve">
<desc>Created with Fabric.js 5.2.4</desc>
<defs>
</defs>
<g transform="matrix(1 0 0 1 540 540)" id="ee4fbf11-0c49-4763-bbd0-2c0419678a4f"  >
<rect style="stroke: none; stroke-width: 1; stroke-dasharray: none; stroke-linecap: butt; stroke-dashoffset: 0; stroke-linejoin: miter; stroke-miterlimit: 4; fill: rgb(255,255,255); fill-rule: nonzero; opacity: 1; visibility: hidden;" vector-effect="non-scaling-stroke"  x="-540" y="-540" rx="0" ry="0" width="1080" height="1080" />
</g>
<g transform="matrix(1 0 0 1 540 540)" id="5582a991-4748-470f-9a83-b92900ef732a"  >
</g>
<g transform="matrix(2.15 0 0 2.15 537.61 517.36)"  >
<path style="stroke: rgb(255,255,255); stroke-width: 1; stroke-dasharray: none; stroke-linecap: butt; stroke-dashoffset: 0; stroke-linejoin: miter; stroke-miterlimit: 4; fill: rgb(255,255,255); fill-rule: evenodd; opacity: 1;" vector-effect="non-scaling-stroke"  transform=" translate(-245.28, -232.8)" d="M 484.934 210.533 L 168.148 4.80929 C 166.836 3.95715 165.081 4.33008 164.229 5.64226 L 4.79343 251.152 C 3.94129 252.464 4.31423 254.218 5.6264 255.071 L 322.413 460.794 C 323.725 461.646 325.48 461.273 326.332 459.961 L 485.767 214.452 C 486.62 213.139 486.247 211.385 484.934 210.533 Z M 169.177 3.22535 C 166.99 1.80513 164.065 2.42669 162.645 4.61364 L 3.2095 250.123 C 1.78928 252.31 2.41083 255.234 4.59778 256.655 L 321.384 462.378 C 323.571 463.798 326.495 463.177 327.916 460.99 L 487.351 215.48 C 488.772 213.293 488.15 210.369 485.963 208.949 L 169.177 3.22535 Z" stroke-linecap="round" />
</g>
<g transform="matrix(2.15 0 0 2.15 410.49 711.24)"  >
<path style="stroke: none; stroke-width: 1; stroke-dasharray: none; stroke-linecap: butt; stroke-dashoffset: 0; stroke-linejoin: miter; stroke-miterlimit: 4; fill: rgb(255,255,255); fill-rule: evenodd; opacity: 1;" vector-effect="non-scaling-stroke"  transform=" translate(-186.25, -322.83)" d="M 346.904 428.283 L 24.5739 218.959 L 25.6025 217.375 L 347.933 426.699 L 346.904 428.283 Z" stroke-linecap="round" />
</g>
<g transform="matrix(2.15 0 0 2.15 540 849.45)"  >
<path style="stroke: none; stroke-width: 1; stroke-dasharray: none; stroke-linecap: butt; stroke-dashoffset: 0; stroke-linejoin: miter; stroke-miterlimit: 4; fill: rgb(255,255,255); fill-rule: nonzero; opacity: 1;" vector-effect="non-scaling-stroke"  transform=" translate(-258.44, -396.73)" d="M 255.24 385.646 L 269.861 395.14 L 261.632 407.812 L 247.011 398.317 L 255.24 385.646 Z" stroke-linecap="round" />
</g>
<g transform="matrix(2.15 0 0 2.15 68.64 554.64)"  >
<path style="stroke: none; stroke-width: 1; stroke-dasharray: none; stroke-linecap: butt; stroke-dashoffset: 0; stroke-linejoin: miter; stroke-miterlimit: 4; fill: rgb(255,255,255); fill-rule: nonzero; opacity: 1;" vector-effect="non-scaling-stroke"  transform=" translate(-27.52, -250.11)" d="M 30.3281 250.844 L 24.707 251.698 L 26.7643 248.53 L 30.3281 250.844 Z" stroke-linecap="round" />
</g>
<g transform="matrix(2.15 0 0 1.51 82.94 536.09)"  >
<path style="stroke: none; stroke-width: 1; stroke-dasharray: none; stroke-linecap: butt; stroke-dashoffset: 0; stroke-linejoin: miter; stroke-miterlimit: 4; fill: rgb(255,255,255); fill-rule: nonzero; opacity: 1;" vector-effect="non-scaling-stroke"  transform=" translate(-34.16, -248.17)" d="M 29.8519 243.779 C 30.9881 242.03 33.3275 241.532 35.077 242.669 L 39.8288 245.754 C 41.5784 246.891 42.0756 249.23 40.9395 250.98 L 39.9109 252.563 C 38.7747 254.313 36.4353 254.81 34.6858 253.674 L 26.7661 248.531 L 29.8519 243.779 Z" stroke-linecap="round" />
</g>
<g transform="matrix(2.15 0 0 2.15 119.02 579.23)"  >
<path style="stroke: none; stroke-width: 1; stroke-dasharray: none; stroke-linecap: butt; stroke-dashoffset: 0; stroke-linejoin: miter; stroke-miterlimit: 4; fill: rgb(255,255,255); fill-rule: nonzero; opacity: 1;" vector-effect="non-scaling-stroke"  transform=" translate(-50.91, -261.53)" d="M 46.4701 261.227 L 50.2657 263.692 L 49.1918 265.346 L 50.121 265.949 L 51.1949 264.296 L 52.2974 265.012 L 52.8599 264.145 L 51.7574 263.429 L 55.3576 257.886 L 54.1764 257.119 L 46.9917 260.424 L 46.4701 261.227 Z M 50.8282 262.826 L 48.0879 261.046 L 48.1288 260.983 L 53.5574 258.486 L 53.6204 258.526 L 50.8282 262.826 Z" stroke-linecap="round" />
</g>
<g transform="matrix(2.15 0 0 2.15 174 608.89)"  >
<path style="stroke: none; stroke-width: 1; stroke-dasharray: none; stroke-linecap: butt; stroke-dashoffset: 0; stroke-linejoin: miter; stroke-miterlimit: 4; fill: rgb(255,255,255); fill-rule: nonzero; opacity: 1;" vector-effect="non-scaling-stroke"  transform=" translate(-76.44, -275.31)" d="M 77.5443 271.699 C 77.319 270.626 76.677 269.687 75.7595 269.088 C 74.8419 268.489 73.724 268.278 72.6514 268.503 C 71.5801 268.734 70.6443 269.381 70.0499 270.301 C 69.4554 271.222 69.2509 272.341 69.4812 273.413 L 71.2408 281.695 C 71.2759 281.86 71.375 282.004 71.5164 282.096 C 71.6579 282.188 71.83 282.22 71.9949 282.185 L 80.2318 280.437 C 81.3028 280.205 82.2381 279.559 82.8324 278.638 C 83.4267 277.718 83.6313 276.599 83.4012 275.528 C 83.2899 274.996 83.0748 274.491 82.7682 274.043 C 82.4617 273.594 82.0697 273.21 81.6147 272.913 C 81.1597 272.616 80.6506 272.411 80.1165 272.311 C 79.5824 272.21 79.0337 272.216 78.5019 272.328 L 77.7148 272.496 L 77.5443 271.699 L 77.5443 271.699 Z" stroke-linecap="round" />
</g>
<g transform="matrix(2.15 0 0 2.15 209.63 636.35)"  >
<path style="stroke: none; stroke-width: 1; stroke-dasharray: none; stroke-linecap: butt; stroke-dashoffset: 0; stroke-linejoin: miter; stroke-miterlimit: 4; fill: rgb(255,255,255); fill-rule: nonzero; opacity: 1;" vector-effect="non-scaling-stroke"  transform=" translate(-92.99, -288.05)" d="M 96.0936 284.34 L 95.1172 283.706 L 92.2319 283.735 L 91.5876 284.727 L 94.4051 284.699 L 94.4524 284.729 L 89.8806 291.769 L 90.857 292.403 L 96.0936 284.34 Z" stroke-linecap="round" />
</g>
<g transform="matrix(2.15 0 0 2.15 220.97 644)"  >
<path style="stroke: none; stroke-width: 1; stroke-dasharray: none; stroke-linecap: butt; stroke-dashoffset: 0; stroke-linejoin: miter; stroke-miterlimit: 4; fill: rgb(255,255,255); fill-rule: nonzero; opacity: 1;" vector-effect="non-scaling-stroke"  transform=" translate(-98.25, -291.61)" d="M 95.6874 295.697 C 97.2978 296.743 99.031 296.53 99.8904 295.224 C 100.545 294.2 100.426 292.891 99.6608 292.164 L 99.6915 292.117 C 100.575 292.411 101.552 291.993 102.117 291.14 C 102.907 289.906 102.469 288.323 101.067 287.413 C 99.6498 286.492 98.025 286.736 97.2351 287.969 C 96.6698 288.823 96.6852 289.885 97.3291 290.583 L 97.2984 290.63 C 96.3077 290.216 95.064 290.64 94.4096 291.665 C 93.5503 292.971 94.0613 294.641 95.6874 295.697 Z M 96.2499 294.831 C 95.1435 294.112 94.8306 293.103 95.401 292.242 C 95.9838 291.327 97.1577 291.166 98.1932 291.838 C 99.213 292.501 99.5431 293.639 98.9603 294.553 C 98.3899 295.414 97.3406 295.539 96.2499 294.831 Z M 98.7353 291.004 C 97.8533 290.431 97.5892 289.476 98.1391 288.646 C 98.6631 287.822 99.6093 287.675 100.515 288.263 C 101.405 288.841 101.655 289.765 101.132 290.589 C 100.582 291.419 99.6015 291.566 98.7353 291.004 Z" stroke-linecap="round" />
</g>
<g transform="matrix(0.83 0.55 -0.55 0.83 549.21 499.6)" style="" id="494d157f-f472-458c-ac62-1e2f0a541707"  >
		<text xml:space="preserve" font-family="Alegreya" font-size="108" font-style="normal" font-weight="700" style="stroke: none; stroke-width: 1; stroke-dasharray: none; stroke-linecap: butt; stroke-dashoffset: 0; stroke-linejoin: miter; stroke-miterlimit: 4; fill: rgb(255,255,255); fill-rule: nonzero; opacity: 1; white-space: pre;" ><tspan x="-337.23" y="33.93" >Margazhi&apos; 2025</tspan></text>
</g>
<g transform="matrix(0.84 0.54 -0.54 0.84 638.76 916.7)" style="" id="bf4e8862-bba4-40c1-98b5-6ef139bb667e"  >
		<text xml:space="preserve" font-family="Lato" font-size="40" font-style="normal" font-weight="400" style="stroke: none; stroke-width: 1; stroke-dasharray: none; stroke-linecap: butt; stroke-dashoffset: 0; stroke-linejoin: miter; stroke-miterlimit: 4; fill: rgb(255,255,255); fill-rule: nonzero; opacity: 1; white-space: pre;" ><tspan x="-71.46" y="12.57" >Paradox</tspan></text>
</g>
</svg>