<?xml version="1.0" encoding="UTF-8" standalone="no" ?>
<!DOCTYPE svg PUBLIC "-//W3C//DTD SVG 1.1//EN" "http://www.w3.org/Graphics/SVG/1.1/DTD/svg11.dtd">
<svg xmlns="http://www.w3.org/2000/svg" xmlns:xlink="http://www.w3.org/1999/xlink" version="1.1" width="1080" height="1080" viewBox="0 0 1080 1080" xml:space="preserve">
<desc>Created with Fabric.js 5.2.4</desc>
<defs>
</defs>
<rect x="0" y="0" width="100%" height="100%" fill="transparent"></rect>
<g transform="matrix(1 0 0 1 540 540)" id="2375a0f1-7d64-458e-b26b-87c1b362fd4f"  >
</g>
<g transform="matrix(1 0 0 1 540 540)" id="bd684d2f-62a7-4177-9be6-7842222ad041"  >
<rect style="stroke: none; stroke-width: 1; stroke-dasharray: none; stroke-linecap: butt; stroke-dashoffset: 0; stroke-linejoin: miter; stroke-miterlimit: 4; fill: rgb(255,255,255); fill-rule: nonzero; opacity: 1; visibility: hidden;" vector-effect="non-scaling-stroke"  x="-540" y="-540" rx="0" ry="0" width="1080" height="1080" />
</g>
<g transform="matrix(2.45 0 0 2.45 540 540)"  >
<path style="stroke: none; stroke-width: 1; stroke-dasharray: none; stroke-linecap: butt; stroke-dashoffset: 0; stroke-linejoin: miter; stroke-miterlimit: 4; fill: rgb(255,255,255); fill-rule: evenodd; opacity: 1;" vector-effect="non-scaling-stroke"  transform=" translate(-214.01, -197.58)" d="M 304.155 4.3429 L 5.15096 154.602 C 3.91244 155.225 3.41298 156.733 4.03537 157.972 L 120.486 389.7 C 121.109 390.938 122.617 391.438 123.856 390.815 L 422.86 240.556 C 424.098 239.934 424.598 238.425 423.975 237.187 L 307.524 5.45849 C 306.902 4.21997 305.393 3.7205 304.155 4.3429 Z M 4.39966 153.107 C 2.33547 154.144 1.50303 156.659 2.54035 158.723 L 118.991 390.451 C 120.029 392.515 122.543 393.348 124.607 392.31 L 423.611 242.051 C 425.675 241.014 426.508 238.499 425.47 236.435 L 309.019 4.70719 C 307.982 2.643 305.468 1.81056 303.404 2.84788 L 4.39966 153.107 Z" stroke-linecap="round" />
</g>
<g transform="matrix(2.45 0 0 2.45 641.74 749.27)"  >
<path style="stroke: none; stroke-width: 1; stroke-dasharray: none; stroke-linecap: butt; stroke-dashoffset: 0; stroke-linejoin: miter; stroke-miterlimit: 4; fill: rgb(255,254,254); fill-rule: evenodd; opacity: 1;" vector-effect="non-scaling-stroke"  transform=" translate(-256.45, -282.98)" d="M 408.949 207.286 L 104.712 360.175 L 103.961 358.68 L 408.197 205.791 L 408.949 207.286 Z" stroke-linecap="round" />
</g>
<g transform="matrix(2.45 0 0 2.45 862.14 695.22)"  >
<path style="stroke: none; stroke-width: 1; stroke-dasharray: none; stroke-linecap: butt; stroke-dashoffset: 0; stroke-linejoin: miter; stroke-miterlimit: 4; fill: rgb(255,254,254); fill-rule: nonzero; opacity: 1;" vector-effect="non-scaling-stroke"  transform=" translate(-345.25, -260.83)" d="M 335.348 258.317 L 349.148 251.382 L 355.158 263.343 L 341.358 270.278 L 335.348 258.317 Z" stroke-linecap="round" />
</g>
<g transform="matrix(2.45 0 0 2.45 333.74 969.08)"  >
<path style="stroke: none; stroke-width: 1; stroke-dasharray: none; stroke-linecap: butt; stroke-dashoffset: 0; stroke-linejoin: miter; stroke-miterlimit: 4; fill: rgb(255,254,254); fill-rule: nonzero; opacity: 1;" vector-effect="non-scaling-stroke"  transform=" translate(-129.99, -372.38)" d="M 131.67 370.035 L 129.809 374.716 L 128.306 371.726 L 131.67 370.035 Z" stroke-linecap="round" />
</g>
<g transform="matrix(2.45 0 0 2.45 337.83 953.25)"  >
<path style="stroke: none; stroke-width: 1; stroke-dasharray: none; stroke-linecap: butt; stroke-dashoffset: 0; stroke-linejoin: miter; stroke-miterlimit: 4; fill: rgb(255,254,254); fill-rule: nonzero; opacity: 1;" vector-effect="non-scaling-stroke"  transform=" translate(-131.66, -365.93)" d="M 126.051 367.241 C 125.222 365.589 125.888 363.578 127.539 362.748 L 132.024 360.494 C 133.675 359.664 135.687 360.33 136.517 361.981 L 137.268 363.476 C 138.098 365.128 137.432 367.139 135.78 367.969 L 128.305 371.726 L 126.051 367.241 Z" stroke-linecap="round" />
</g>
<g transform="matrix(2.45 0 0 2.45 381.35 934.24)"  >
<path style="stroke: none; stroke-width: 1; stroke-dasharray: none; stroke-linecap: butt; stroke-dashoffset: 0; stroke-linejoin: miter; stroke-miterlimit: 4; fill: rgb(255,254,254); fill-rule: nonzero; opacity: 1;" vector-effect="non-scaling-stroke"  transform=" translate(-149.39, -358.19)" d="M 146.828 362.334 L 150.411 360.534 L 151.195 362.095 L 152.072 361.654 L 151.288 360.093 L 152.329 359.57 L 151.918 358.753 L 150.877 359.276 L 148.248 354.043 L 147.133 354.603 L 146.448 361.576 L 146.828 362.334 Z M 150 359.716 L 147.414 361.016 L 147.384 360.957 L 147.901 355.688 L 147.961 355.658 L 150 359.716 Z" stroke-linecap="round" />
</g>
<g transform="matrix(2.45 0 0 2.45 432.84 905.39)"  >
<path style="stroke: none; stroke-width: 1; stroke-dasharray: none; stroke-linecap: butt; stroke-dashoffset: 0; stroke-linejoin: miter; stroke-miterlimit: 4; fill: rgb(255,254,254); fill-rule: nonzero; opacity: 1;" vector-effect="non-scaling-stroke"  transform=" translate(-170.36, -346.43)" d="M 168.735 343.253 C 167.814 342.946 166.809 343.017 165.94 343.45 C 165.072 343.884 164.411 344.645 164.103 345.566 C 163.8 346.488 163.877 347.493 164.315 348.36 C 164.753 349.226 165.517 349.883 166.44 350.186 L 173.561 352.544 C 173.702 352.591 173.857 352.58 173.991 352.513 C 174.124 352.446 174.225 352.328 174.272 352.187 L 176.619 345.106 C 176.922 344.183 176.845 343.179 176.407 342.312 C 175.969 341.446 175.205 340.79 174.283 340.486 C 173.826 340.334 173.344 340.273 172.864 340.306 C 172.384 340.34 171.915 340.468 171.484 340.683 C 171.053 340.898 170.669 341.196 170.353 341.56 C 170.038 341.923 169.797 342.345 169.645 342.802 L 169.421 343.479 L 168.735 343.253 L 168.735 343.253 Z" stroke-linecap="round" />
</g>
<g transform="matrix(1.1 0 0 2.45 470.9 886.54)"  >
<path style="stroke: none; stroke-width: 1; stroke-dasharray: none; stroke-linecap: butt; stroke-dashoffset: 0; stroke-linejoin: miter; stroke-miterlimit: 4; fill: rgb(255,254,254); fill-rule: nonzero; opacity: 1;" vector-effect="non-scaling-stroke"  transform=" translate(-187.52, -338.76)" d="M 186.699 334.721 L 185.777 335.184 L 184.51 337.404 L 184.98 338.34 L 186.218 336.173 L 186.263 336.15 L 189.602 342.795 L 190.524 342.332 L 186.699 334.721 Z" stroke-linecap="round" />
</g>
<g transform="matrix(2.45 0 0 2.45 489.28 880.36)"  >
<path style="stroke: none; stroke-width: 1; stroke-dasharray: none; stroke-linecap: butt; stroke-dashoffset: 0; stroke-linejoin: miter; stroke-miterlimit: 4; fill: rgb(255,254,254); fill-rule: nonzero; opacity: 1;" vector-effect="non-scaling-stroke"  transform=" translate(-193.35, -336.24)" d="M 195.203 340.111 C 196.723 339.347 197.336 337.926 196.721 336.685 C 196.23 335.726 195.176 335.232 194.278 335.492 L 194.256 335.448 C 194.876 334.903 194.993 333.969 194.594 333.155 C 194.003 332 192.596 331.627 191.273 332.292 C 189.936 332.964 189.395 334.315 189.985 335.471 C 190.385 336.285 191.204 336.748 192.026 336.568 L 192.049 336.613 C 191.289 337.185 191.057 338.326 191.548 339.285 C 192.163 340.526 193.668 340.882 195.203 340.111 Z M 194.792 339.293 C 193.748 339.818 192.836 339.606 192.432 338.785 C 191.994 337.93 192.395 336.96 193.373 336.469 C 194.335 335.985 195.353 336.242 195.792 337.096 C 196.195 337.918 195.821 338.776 194.792 339.293 Z M 192.977 335.681 C 192.144 336.099 191.296 335.874 190.907 335.082 C 190.511 334.313 190.822 333.524 191.677 333.094 C 192.517 332.672 193.336 332.894 193.732 333.663 C 194.12 334.455 193.794 335.27 192.977 335.681 Z" stroke-linecap="round" />
</g>
<g transform="matrix(0.89 -0.45 0.45 0.89 519.05 516.39)" style="" id="7ebc9217-9349-4411-8117-39b2bbe3587c"  >
		<text xml:space="preserve" font-family="Alegreya" font-size="130" font-style="normal" font-weight="700" style="stroke: none; stroke-width: 1; stroke-dasharray: none; stroke-linecap: butt; stroke-dashoffset: 0; stroke-linejoin: miter; stroke-miterlimit: 4; fill: rgb(255,254,254); fill-rule: nonzero; opacity: 1; white-space: pre;" ><tspan x="-314.01" y="40.84" >HackSprint</tspan></text>
</g>
<g transform="matrix(0.89 -0.45 0.45 0.89 947.81 649.81)" style="" id="d52e28de-4a8f-4a76-bd1b-d2c6aee4a116"  >
		<text xml:space="preserve" font-family="Lato" font-size="22" font-style="normal" font-weight="400" style="stroke: none; stroke-width: 1; stroke-dasharray: none; stroke-linecap: butt; stroke-dashoffset: 0; stroke-linejoin: miter; stroke-miterlimit: 4; fill: rgb(255,254,254); fill-rule: nonzero; opacity: 1; white-space: pre;" ><tspan x="-66.95" y="6.91" >Paradox 2025</tspan></text>
</g>
</svg>